<svg xmlns="http://www.w3.org/2000/svg" viewBox="0 0 68 68" class="d-none"><path d="M7.885 26.603v8.987a.5.5 0 1 0 1 0v-8.44a6.13 6.13 0 0 0 2.447.508 6.175 6.175 0 0 0 5.667-3.739c.944 2.196 3.128 3.739 5.667 3.739s4.722-1.543 5.667-3.739A6.175 6.175 0 0 0 34 27.658a6.176 6.176 0 0 0 5.667-3.739c.945 2.196 3.13 3.739 5.667 3.739s4.723-1.543 5.667-3.739a6.175 6.175 0 0 0 5.667 3.739 6.13 6.13 0 0 0 2.447-.509v35.216a3.139 3.139 0 0 1-3.136 3.135H12.021a3.139 3.139 0 0 1-3.136-3.135V42.158a.5.5 0 1 0-1 0v20.207a4.14 4.14 0 0 0 4.136 4.135h43.958a4.14 4.14 0 0 0 4.136-4.135V26.603a6.166 6.166 0 0 0 2.721-5.112v-6.912c0-.024-.01-.045-.013-.068-.003-.018.003-.035-.001-.053l-2.53-10.127A3.73 3.73 0 0 0 56.667 1.5H11.333a3.733 3.733 0 0 0-3.625 2.831l-2.53 10.127c-.004.018.002.035 0 .053-.004.023-.014.044-.014.068v6.912a6.166 6.166 0 0 0 2.721 5.112zm19.948-5.112c0 2.849-2.319 5.167-5.167 5.167s-5.167-2.318-5.167-5.167v-6.412h10.334v6.412zm22.668 0c0 2.849-2.318 5.167-5.167 5.167s-5.167-2.318-5.167-5.167v-6.412h10.334v6.412zm11.335 0a5.173 5.173 0 0 1-5.168 5.167 5.173 5.173 0 0 1-5.167-5.167v-6.412h10.335v6.412zM56.666 2.5c1.26 0 2.35.853 2.655 2.073l2.375 9.506H51.432L50.11 5.25 49.697 2.5h6.97zm-7.98 0 1.324 8.83.411 2.75H40.143L39.564 2.5h9.122zm-19.249 0h9.126l.58 11.58H28.857l.579-11.58zm-.604 12.58h10.334v6.41A5.173 5.173 0 0 1 34 26.659a5.173 5.173 0 0 1-5.167-5.167v-6.412zM19.314 2.5h9.122l-.58 11.58H17.58l.411-2.75 1.324-8.83zM8.678 4.573A2.733 2.733 0 0 1 11.333 2.5h6.97l-.412 2.749-1.323 8.83H6.304l2.374-9.506zM6.164 15.08h10.335v6.412a5.173 5.173 0 0 1-5.167 5.167 5.173 5.173 0 0 1-5.168-5.167v-6.412z" fill="#34a853" class="color000 svgShape"/><path d="M20.16 51.492a5.947 5.947 0 0 0-1.306 6.492.5.5 0 0 0 .815.162l2.717-2.717c.399-.4.983-.562 1.54-.417a1.601 1.601 0 0 1 .73 2.684l-2.718 2.719a.5.5 0 0 0 .161.814c.738.308 1.51.458 2.278.458a5.96 5.96 0 0 0 4.22-1.76 5.966 5.966 0 0 0 1.32-6.424l4.093-4.095 4.09 4.09a5.973 5.973 0 0 0 1.321 6.43 5.953 5.953 0 0 0 4.214 1.757c.768 0 1.542-.15 2.282-.458a.498.498 0 0 0 .16-.815l-2.72-2.72a1.622 1.622 0 0 1-.42-1.526 1.628 1.628 0 0 1 1.162-1.16c.5-.137 1.126.017 1.532.423l2.72 2.72a.501.501 0 0 0 .816-.164 5.966 5.966 0 0 0-1.31-6.493 5.953 5.953 0 0 0-6.42-1.322l-.709-.708a.5.5 0 1 0-.707.707l.95.95a.5.5 0 0 0 .569.098c1.876-.893 4.131-.497 5.61.982a4.97 4.97 0 0 1 1.33 4.665l-2.142-2.143a2.594 2.594 0 0 0-2.498-.68 2.63 2.63 0 0 0-1.87 1.873c-.222.89.038 1.842.68 2.485l2.146 2.145a4.934 4.934 0 0 1-4.668-1.322 4.967 4.967 0 0 1-.981-5.623.5.5 0 0 0-.099-.567l-4.33-4.33 6.714-6.717c2.194.88 4.734.37 6.425-1.321a5.946 5.946 0 0 0 1.307-6.492.5.5 0 0 0-.816-.162l-2.717 2.717c-.4.4-.988.56-1.54.417a1.6 1.6 0 0 1-.73-2.684l2.719-2.718a.5.5 0 0 0-.162-.815 5.935 5.935 0 0 0-6.497 1.302 5.969 5.969 0 0 0-1.32 6.424l-4.095 4.096-4.088-4.097a5.972 5.972 0 0 0-1.32-6.42c-1.72-1.721-4.271-2.234-6.496-1.308a.5.5 0 0 0-.161.815l2.717 2.717a1.613 1.613 0 0 1-.694 2.676.689.689 0 0 0-.047.01 1.592 1.592 0 0 1-1.529-.41l-2.72-2.72a.499.499 0 0 0-.815.163 5.947 5.947 0 0 0 1.307 6.483 5.962 5.962 0 0 0 6.422 1.331l4.096 4.088-4.093 4.094a5.969 5.969 0 0 0-6.424 1.321zm6.888-10.45a.503.503 0 0 0-.566-.1 4.957 4.957 0 0 1-5.614-.99 4.954 4.954 0 0 1-1.33-4.656l2.147 2.146a2.612 2.612 0 0 0 2.444.678.598.598 0 0 0 .05-.01 2.59 2.59 0 0 0 1.859-1.867 2.616 2.616 0 0 0-.67-2.491l-2.146-2.146a4.944 4.944 0 0 1 4.67 1.333 4.969 4.969 0 0 1 .98 5.613c-.09.19-.05.417.1.566l4.327 4.338-1.914 1.914-4.337-4.328zm.003 10.077 11.997-12a.5.5 0 0 0 .099-.567 4.96 4.96 0 0 1 .981-5.616 4.947 4.947 0 0 1 4.67-1.327l-2.143 2.144a2.612 2.612 0 0 0-.68 2.492 2.605 2.605 0 0 0 4.363 1.19l2.141-2.142a4.955 4.955 0 0 1-1.33 4.664 4.959 4.959 0 0 1-5.615.981.502.502 0 0 0-.568.1L28.968 53.036a.5.5 0 0 0-.098.567 4.962 4.962 0 0 1-.98 5.616 4.948 4.948 0 0 1-4.67 1.327l2.143-2.144c.648-.65.909-1.604.68-2.492a2.607 2.607 0 0 0-4.364-1.189l-2.14 2.141a4.956 4.956 0 0 1 1.329-4.664 4.965 4.965 0 0 1 5.616-.982c.19.09.418.05.567-.098z" fill="#34a853" class="color000 svgShape"/></svg>