<svg xmlns="http://www.w3.org/2000/svg" data-name="Layer 1" viewBox="0 0 64 64" class="d-none"><path d="M49 9h6v2h-6zM45 15h10v2H45zM55 21H45v2h10v-2zM52.363 51.377a3.014 3.014 0 0 0 2.131-5.145 3.087 3.087 0 0 0-4.262 0 3.014 3.014 0 0 0 2.131 5.146Zm-.717-3.731a1.014 1.014 0 1 1 1.434 1.434 1.038 1.038 0 0 1-1.434 0 1.014 1.014 0 0 1 0-1.434Z" fill="#34a853" class="color000 svgShape"/><path d="M16 8h-6a1 1 0 0 0-1 1v7.742l-6.462 3.371A1 1 0 0 0 3 22h1v39a1 1 0 0 0 1 1h14a1 1 0 0 0 1-1V47h12v14a1 1 0 0 0 1 1h14a1 1 0 0 0 1-1v-5.617l1.885 1.886a2.5 2.5 0 0 0 3.532 0l7.852-7.852a2.5 2.5 0 0 0 0-3.532l-6.428-6.427a2.557 2.557 0 0 0-3.532 0l-1.082 1.082L48 38.313v-8.551a8.984 8.984 0 0 0 2.029.238h7.8a4.089 4.089 0 0 0 4.164-3.786 3.989 3.989 0 0 0-1.656-3.46A2.974 2.974 0 0 1 59 20.381v-9.352A9.039 9.039 0 0 0 49.971 2h-7.8a4.089 4.089 0 0 0-4.164 3.786 3.989 3.989 0 0 0 1.656 3.46A2.974 2.974 0 0 1 41 11.619V15.7L26.463 8.113a1 1 0 0 0-.925 0L17 12.568V9a1 1 0 0 0-1-1Zm-5 2h4v3.611L11 15.7Zm38.52 32.661a1.029 1.029 0 0 0 1.414 0l1.789-1.789a.5.5 0 0 1 .7 0l6.431 6.428a.5.5 0 0 1 0 .7L52 55.854a.5.5 0 0 1-.7 0l-6.427-6.428a.5.5 0 0 1 0-.7l1.789-1.789a1 1 0 0 0 0-1.414l-3.267-3.268v-2.437a1 1 0 0 0-1-1h-2.436l-1.55-1.55v-2.435a1 1 0 0 0-1-1h-2.434l-2.32-2.32-.477-3.335 3.336.477ZM40.832 7.624A2 2 0 0 1 40 5.891 2.119 2.119 0 0 1 42.17 4h7.8A7.037 7.037 0 0 1 57 11.029v9.352a4.948 4.948 0 0 0 2.168 4A2 2 0 0 1 60 26.109 2.119 2.119 0 0 1 57.83 28h-7.8A7.037 7.037 0 0 1 43 20.971v-9.352a4.948 4.948 0 0 0-2.168-3.995ZM41.063 22A9.039 9.039 0 0 0 46 29.04v7.273l-9.308-9.308a1 1 0 0 0-.566-.283l-4.984-.712a1 1 0 0 0-1.132 1.132l.712 4.984a1 1 0 0 0 .283.566l2.849 2.848a1 1 0 0 0 .707.293h1.848v1.849a1 1 0 0 0 .293.707l2.136 2.136a1 1 0 0 0 .707.293h1.849v1.848a1 1 0 0 0 .293.707l2.853 2.854-1.082 1.082a2.5 2.5 0 0 0 0 3.532L46 53.383V60H34V46a1 1 0 0 0-1-1H19a1 1 0 0 0-1 1v14H6V22ZM26 10.128l15 7.828V20H7.079Z" fill="#34a853" class="color000 svgShape"/><path d="M18 37a1 1 0 0 1-1-1h-2a3 3 0 0 0 2 2.816V40h2v-1.184A2.993 2.993 0 0 0 18 33a1 1 0 1 1 1-1h2a3 3 0 0 0-2-2.816V28h-2v1.184A2.993 2.993 0 0 0 18 35a1 1 0 0 1 0 2Z" fill="#34a853" class="color000 svgShape"/><path d="M18 44A10 10 0 1 0 8 34a10.011 10.011 0 0 0 10 10Zm0-18a8 8 0 1 1-8 8 8.009 8.009 0 0 1 8-8Z" fill="#34a853" class="color000 svgShape"/></svg>