<svg xmlns="http://www.w3.org/2000/svg" viewBox="0 0 8.467 8.467" class="d-none"><g color="#000" font-family="sans-serif" font-weight="400" fill="#34a853" class="color000 svgShape"><path fill-rule="evenodd" d="M3.743 290.865a1.19 1.19 0 0 0-.639.186.133.133 0 0 0-.018.014l-1.07.977a.657.657 0 0 1-.188.082l-1.062.265a.663.663 0 0 0-.501.643v.396c0 .364.298.662.662.662h.396v-.265H.927a.395.395 0 0 1-.397-.397v-.396c0-.183.123-.341.3-.385l1.062-.266a.925.925 0 0 0 .272-.117.133.133 0 0 0 .019-.014l1.068-.977a.925.925 0 0 1 .492-.143h2.094c.116 0 .226.05.301.139a.133.133 0 0 0 .001 0l.745.854c.126.146.31.23.503.23l.418.001a.13.13 0 0 1 .132.132v.678a.659.659 0 0 1-.66.66h-.398v.266h.397c.51 0 .926-.416.926-.926v-.678a.4.4 0 0 0-.397-.397h-.418a.396.396 0 0 1-.302-.139.133.133 0 0 0 0-.001l-.745-.853a.662.662 0 0 0-.503-.231Zm-1.097 2.96v.265h2.91v-.265z" overflow="visible" style="line-height:normal;text-indent:0;text-align:start;text-decoration-line:none;text-decoration-style:solid;text-decoration-color:#000;text-transform:none;white-space:normal;isolation:auto;mix-blend-mode:normal;solid-color:#000;solid-opacity:1" transform="translate(0 -288.533)" fill="#34a853" class="color000 svgShape"/><path d="M6.218 293.164a.796.796 0 0 0-.794.793c0 .437.357.794.794.794a.796.796 0 0 0 .793-.794.796.796 0 0 0-.793-.793zm0 .264c.293 0 .529.235.529.53 0 .293-.236.528-.53.528a.527.527 0 0 1-.528-.529c0-.294.235-.529.529-.529zm-4.234-.264a.796.796 0 0 0-.793.793c0 .437.357.794.793.794a.796.796 0 0 0 .794-.794.796.796 0 0 0-.794-.793zm0 .264c.294 0 .53.235.53.53 0 .293-.236.528-.53.528a.527.527 0 0 1-.529-.529c0-.294.236-.529.53-.529z" overflow="visible" style="line-height:normal;text-indent:0;text-align:start;text-decoration-line:none;text-decoration-style:solid;text-decoration-color:#000;text-transform:none;white-space:normal;isolation:auto;mix-blend-mode:normal;solid-color:#000;solid-opacity:1" transform="translate(0 -288.533)" fill="#34a853" class="color000 svgShape"/><path fill-rule="evenodd" style="line-height:normal;text-indent:0;text-align:start;text-decoration-line:none;text-decoration-style:solid;text-decoration-color:#000;text-transform:none;white-space:normal;isolation:auto;mix-blend-mode:normal;solid-color:#000;solid-opacity:1" d="M.397 293.031v.265h.397v-.265zm7.011-.529v.265h.265v-.265zm-2.91-1.19v.793h.265v-.794z" overflow="visible" transform="translate(0 -288.533)" fill="#34a853" class="color000 svgShape"/><path fill-rule="evenodd" style="line-height:normal;text-indent:0;text-align:start;text-decoration-line:none;text-decoration-style:solid;text-decoration-color:#000;text-transform:none;white-space:normal;isolation:auto;mix-blend-mode:normal;solid-color:#000;solid-opacity:1" d="M2.117 291.973v.264h4.895v-.264z" overflow="visible" transform="translate(0 -288.533)" fill="#34a853" class="color000 svgShape"/></g></svg>