<svg xmlns="http://www.w3.org/2000/svg" enable-background="new 0 0 630 630" viewBox="0 0 630 630" class="d-none"><rect width="601.116" height="3.309" x="15.797" y="517.649" fill="#167ffc" class="color3e195f svgShape"/><polygon fill="#e7e7ff" points="615.232 78.85 615.232 519 30.872 519 16.362 59.06" class="colorffe7ff svgShape"/><path fill="#9395f9" d="M66.2880096,311.6185303l-1.6923828-1.0654297       c0.4335938-0.6894531,0.8510742-1.3876953,1.2524414-2.0932617l1.7382813,0.9882813       C67.1703339,310.1800537,66.738205,310.9036865,66.2880096,311.6185303z M72.5668182,298.3533936l-1.8867188-0.6630859       c1.2021484-3.4194336,2.2612305-7.1586914,3.2382813-11.4311523l1.9492188,0.4453125       C74.8739471,291.0516357,73.7943573,294.8621826,72.5668182,298.3533936z M78.1869354,274.8787842l-1.9697266-0.3447266       l0.6044922-3.4931641c0.4785156-2.7822266,0.9575195-5.5654297,1.4790039-8.3378906l1.9658203,0.3701172       c-0.5200195,2.7617188-0.9970703,5.534668-1.4741211,8.3071289L78.1869354,274.8787842z M126.7894745,253.2513275       c-2.828125,0-5.7050781-0.5048828-8.5507813-1.5l0.6601563-1.8876953       c3.8164063,1.3344727,7.7597656,1.7182617,11.3154297,1.097168l0.3447266,1.9697266       C129.3431854,253.1434174,128.0746307,253.2513275,126.7894745,253.2513275z M82.8539276,251.4368744l-1.9316406-0.5185547       c0.6269531-2.3364258,1.284668-4.487793,2.0102539-6.5771484c0.5800781-1.6713867,1.2197266-3.3232422,1.9008789-4.9082031       l1.8374023,0.7900391c-0.6621094,1.5410156-1.2841797,3.1474609-1.8486328,4.7739258       C84.1122284,247.0408783,83.4686737,249.1473236,82.8539276,251.4368744z M324.9765015,246.9910736l-0.0361328-2       c3.7441406-0.0683594,7.5820313-0.8076172,11.4077148-2.1972656l0.6826172,1.8798828       C332.9974976,246.1390228,328.9418335,246.9183197,324.9765015,246.9910736z M141.3846893,246.7991791l-1.5429688-1.2724609       c2.3095703-2.7998047,3.5766602-6.4306641,3.6640625-10.4995117l2,0.0429688       C145.4081268,239.5931244,143.9833221,243.6487885,141.3846893,246.7991791z M107.7665253,245.2098236       c-0.2211914-0.222168-0.4375-0.4487305-0.6489258-0.6782227c-2.4599609-2.6743164-4.5629883-5.8662109-6.2514648-9.4858398       l1.8125-0.8457031c1.6015625,3.434082,3.590332,6.4541016,5.9106445,8.9775391       c0.1938477,0.2104492,0.3916016,0.4174805,0.5942383,0.6210938L107.7665253,245.2098236z M312.8627319,244.6683197       c-3.6459961-1.6015625-6.9916992-4.050293-9.9438477-7.277832l1.4755859-1.3496094       c2.7631836,3.0205078,5.8828125,5.3076172,9.2729492,6.7963867L312.8627319,244.6683197z M347.8270874,238.9319916       l-1.1523438-1.6347656c2.9804688-2.1025391,5.9135742-4.6166992,8.9667969-7.6865234l1.4179688,1.4101563       C353.9237671,234.1741791,350.9037476,236.7615814,347.8270874,238.9319916z M92.331955,229.8895111l-1.6445313-1.1386719       c1.828125-2.6401367,3.8339844-5.0200195,5.9858398-7.1049805c-0.5888672-2.9833984-1.065918-6.2685547-1.449707-9.9794922       l-0.0175781-0.1748047l1.9892578-0.2021484l0.0180664,0.1728516c0.3261719,3.1557617,0.7202148,5.9941406,1.1943359,8.5947266       c0.1533203-0.1328125,0.3076172-0.2646484,0.4628906-0.3945313l1.2851563,1.5322266       c-0.4384766,0.3681641-0.8720703,0.7485352-1.2998047,1.1416016c0.0493164,0.2324219,0.0996094,0.4633789,0.1503906,0.6923828       l-1.1474609,0.2548828C95.8783417,225.2293549,94.0267792,227.4417572,92.331955,229.8895111z M296.1205444,227.2059174       c-1.2055664-2.4619141-2.2626953-5.1147461-3.1430664-7.8857422c-0.3564453-1.1220703-0.7060547-2.3154297-1.0380859-3.5473633       l1.9306641-0.5205078c0.324707,1.203125,0.6655273,2.3676758,1.0136719,3.4619141       c0.8505859,2.6777344,1.8710938,5.2387695,3.0327148,7.612793L296.1205444,227.2059174z M140.7494354,224.0311127       c-1.2915039-2.3061523-2.9379883-4.2446289-4.8935547-5.7607422c-0.9960938-0.7729492-2.0742188-1.465332-3.2041016-2.059082       l0.9306641-1.7705078c1.2333984,0.6479492,2.4106445,1.4047852,3.4990234,2.2490234       c2.1689453,1.6811523,3.9897461,3.8227539,5.4130859,6.3637695L140.7494354,224.0311127z M365.1327515,222.0252533       l-1.5390625-1.2773438l0.8325195-1.0078125c2.2480469-2.7353516,4.4760742-5.5429688,6.621582-8.3452148l1.5878906,1.2158203       c-2.1591797,2.8208008-4.4018555,5.6464844-6.6645508,8.3994141L365.1327515,222.0252533z M110.1512909,215.3294525       l-0.6835938-1.8798828c3.902832-1.4194336,8.1235352-2.1206055,12.1376953-2.0136719l-0.0517578,1.9990234       C117.7640839,213.3421478,113.8202362,213.993515,110.1512909,215.3294525z M289.3348999,203.9871674l-0.3422852-1.7836914       c-0.6254883-3.2709961-1.2724609-6.6533203-2.0390625-9.9365234l1.9472656-0.4550781       c0.7758789,3.3227539,1.4267578,6.7250977,2.0566406,10.015625l0.3413086,1.7817383L289.3348999,203.9871674z        M379.7675171,202.9129486l-1.6337891-1.1533203c2.2919922-3.246582,4.5488281-6.578125,6.7089844-9.9023438       l1.6767578,1.0898438C384.3456421,196.2928314,382.0741577,199.6458588,379.7675171,202.9129486z M94.384201,199.4524994       c-0.0522461-1.6396484-0.0786133-3.2773438-0.0786133-4.8671875c0-2.4345703,0.0615234-4.8608398,0.1831055-7.2124023       l1.9970703,0.1035156c-0.1196289,2.3168945-0.1801758,4.7084961-0.1801758,7.1088867       c0,1.5688477,0.0258789,3.1850586,0.0776367,4.8037109L94.384201,199.4524994z M392.8822632,182.7288666l-1.7177734-1.0244141       c2.0341797-3.4106445,4.0283203-6.90625,5.9277344-10.3886719l1.7558594,0.9570313       C396.9364624,175.778183,394.9296265,179.2962494,392.8822632,182.7288666z M283.5390015,180.9100189       c-1.3769531-3.644043-3.0366211-7.2714844-4.9331055-10.78125l1.7597656-0.9511719       c1.9389648,3.5888672,3.6362305,7.2983398,5.0444336,11.0253906L283.5390015,180.9100189z M97.6698456,175.6385345       l-1.9775391-0.2998047c0.6186523-4.0751953,1.4555664-8.0620117,2.4873047-11.8500977l1.9296875,0.5253906       C99.09758,167.7283783,98.2767792,171.6395111,97.6698456,175.6385345z M404.4071655,161.5970306l-1.7910156-0.8896484       c1.7666016-3.559082,3.4868164-7.1972656,5.1113281-10.8134766l1.8242188,0.8193359       C407.9164429,154.35289,406.1859741,158.0145111,404.4071655,161.5970306z M272.3178101,160.0648041       c-2.2719727-3.1796875-4.7822266-6.2880859-7.4619141-9.2387695l1.4804688-1.3447266       c2.7319336,3.0083008,5.2919922,6.1782227,7.6083984,9.4213867L272.3178101,160.0648041z M103.9593964,152.7991791       l-1.8427734-0.7773438c1.578125-3.7387695,3.4389648-7.3745117,5.5307617-10.8056641l1.7080078,1.0410156       C107.3148651,145.6043549,105.4994354,149.1512299,103.9593964,152.7991791z M256.3861694,142.4910736       c-2.6616364-2.3427734-5.4741364-4.5844727-8.3608551-6.6625977c-0.3242188-0.2333984-0.6494141-0.465332-0.9760742-0.6953125       l1.1523438-1.6347656c0.331543,0.2338867,0.6625977,0.4697266,0.9921875,0.706543       c2.9394531,2.1162109,5.8037109,4.3989258,8.5136871,6.7851563L256.3861694,142.4910736z M414.2719116,139.6390228       l-1.8544922-0.7485352c1.4882813-3.6879883,2.921875-7.4482422,4.2597656-11.1757813l1.8828125,0.6757813       C417.2128296,132.1424408,415.7699585,135.9271088,414.2719116,139.6390228z M116.2758026,132.6595306l-1.5244141-1.2949219       c2.6674805-3.1411133,5.5698242-6.0229492,8.6259766-8.5654297l1.2792969,1.5371094       C121.6884003,126.8055267,118.8690643,129.6058197,116.2758026,132.6595306z M236.9930878,128.7801361       c-3.3930664-1.9174805-6.9672852-3.7241211-10.6235352-5.3696289l0.8203125-1.8242188       c3.7119141,1.6708984,7.3413086,3.5048828,10.7875977,5.4526367L236.9930878,128.7801361z M215.3085175,118.9871674       c-3.6796875-1.296875-7.5117188-2.4814453-11.3881836-3.5205078l0.5175781-1.9316406       c3.9262695,1.0522461,7.8071289,2.2519531,11.5356445,3.5664063L215.3085175,118.9871674z M134.391037,117.6922455       l-0.9599609-1.7548828c1.8662109-1.0205078,3.7958984-1.9438477,5.7358398-2.7456055       c1.7734375-0.7324219,3.6240234-1.3935547,5.4995117-1.965332l0.5830078,1.9130859       c-1.8149414,0.5532227-3.6044922,1.1923828-5.3188477,1.9008789       C138.0575409,115.8143158,136.1932831,116.7064056,134.391037,117.6922455z M192.2963104,112.7952728       c-1.5361328-0.296875-3.074707-0.5722656-4.6157227-0.828125c-2.4521484-0.40625-4.862793-0.7490234-7.1640625-1.0185547       l0.2324219-1.9863281c2.3330078,0.2729492,4.7753906,0.6206055,7.2587891,1.0322266       c1.5585938,0.2578125,3.1147461,0.5371094,4.6674805,0.8369141L192.2963104,112.7952728z M156.8114471,110.731308       l-0.2421875-1.9853516c3.8266602-0.4667969,7.9350586-0.6699219,12.1108398-0.6083984l-0.0292969,2       C164.5653534,110.0755463,160.5487518,110.2757416,156.8114471,110.731308z" class="colorf693f9 svgShape"/><path fill="#23246a" d="M381.494751,474.9337158c0.0042725,0.2431641,0.0184937,0.4838562,0.0184937,0.7280884         c0,23.1886292-18.7981873,41.9868164-41.9868164,41.9868164s-41.9868164-18.7981873-41.9868164-41.9868164         c0-0.2442322,0.0144043-0.4849243,0.0184937-0.7280884H381.494751z" class="color48236a svgShape"/><path fill="#167ffc" d="M297.5581055,474.9337158c-0.0040894,0.2431641-0.0184937,0.4838562-0.0184937,0.7280884         c0,23.1886292,18.7981873,41.9868164,41.9868164,41.9868164h-15.1781616         c-23.188446,0-41.9866333-18.7981873-41.9866333-41.9868164c0-0.2442322,0.0142212-0.4849243,0.0184937-0.7280884         H297.5581055z" class="color3e195f svgShape"/><path fill="#23246a" d="M146.3102417,474.9337158c0.0040894,0.2431641,0.0183105,0.4838562,0.0183105,0.7280884         c0,23.1886292-18.7980118,41.9868164-41.9866333,41.9868164s-41.9868164-18.7981873-41.9868164-41.9868164         c0-0.2442322,0.0143967-0.4849243,0.018486-0.7280884H146.3102417z" class="color48236a svgShape"/><path fill="#167ffc" d="M62.3735886 474.9337158c-.0040894.2431641-.018486.4838562-.018486.7280884 0 23.1886292 18.7981949 41.9868164 41.9868164 41.9868164H89.1637497c-23.1886215 0-41.9866371-18.7981873-41.9866371-41.9868164 0-.2442322.0142212-.4849243.0183105-.7280884H62.3735886zM201.2898254 517.6485596c-23.1886444 0-41.9867554-18.7980957-41.9867554-41.9867554 0-23.1886292 18.798111-41.9867554 41.9867554-41.9867554h15.1781006c-23.1886444 0-41.9867554 18.7981262-41.9867554 41.9867554 0 23.1886597 18.798111 41.9867554 41.9867554 41.9867554H201.2898254zM432.2264709 517.6485596c-23.1886597 0-41.9867554-18.7980957-41.9867554-41.9867554 0-23.1886292 18.7980957-41.9867554 41.9867554-41.9867554h15.1781006c-23.1886597 0-41.9867554 18.7981262-41.9867554 41.9867554 0 23.1886597 18.7980957 41.9867554 41.9867554 41.9867554H432.2264709z" class="color3e195f svgShape"/><path fill="#8081aa" d="M13.0869904,444.0552979v27.1142273c0,7.3099976,5.9193192,13.2294006,13.2294121,13.2294006         h484.7869263c9.2467651,0,16.7461548-7.4993896,16.7461548-16.7461548v-62.9145508         c0-2.8323669-0.2766113-5.6645813-0.8081055-8.4386597c-0.6408081-3.3638-1.6748047-6.6547852-3.0726929-9.8001099         l-19.0614624-42.8046875c-7.9653015-17.8966064-25.7163391-29.4295044-45.3092651-29.4295044H211.7910767         c-13.0182343,0-25.5197296,5.1257324-34.8029327,14.2632446l-3.756897,3.6987915l-61.8515625,60.9195557H63.9952698         c-20.4157867,0-38.0210495,12.0135498-46.1392288,29.3641052c-2.468338,5.2713928-4.0555334,11.0378418-4.5797396,17.110199         C13.1524048,441.0846252,13.0869904,442.5626831,13.0869904,444.0552979z" class="colora580aa svgShape"/><path fill="#505186" d="M13.0869904,466.9246826v4.2448425c0,7.3099976,5.9193192,13.2294006,13.2294121,13.2294006h484.7869263         c9.2467651,0,16.7461548-7.4993896,16.7461548-16.7461548v-0.7280884H13.0869904z" class="color7e5086 svgShape"/><path fill="#505186" d="M165.0183258 475.6618042c0 2.9779663.2548981 5.8975525.7426605 8.7371216h101.4162598c.4877625-2.8395691.7426758-5.7591553.7426758-8.7371216s-.2549133-5.8975525-.7426758-8.7371216c-4.1428223-24.2601318-25.2721252-42.7172241-50.7116852-42.7172241-25.4324493 0-46.5617523 18.4570923-50.7045746 42.7172241C165.2732239 469.7642517 165.0183258 472.6838379 165.0183258 475.6618042zM395.9549561 475.6618042c0 2.9779663.2549133 5.8975525.7426758 8.7371216h101.4162292c.487793-2.8395691.7426758-5.7591553.7426758-8.7371216s-.2548828-5.8975525-.7426758-8.7371216c-4.1427917-24.2601318-25.2720947-42.7172241-50.7116699-42.7172241-25.4324646 0-46.5617676 18.4570923-50.7045593 42.7172241C396.2098694 469.7642517 395.9549561 472.6838379 395.9549561 475.6618042z" class="color7e5086 svgShape"/><path fill="#c6c7ff" d="M111.3847504 393.1437378H251.17099l30.5484314-52.160614c2.2718201-3.8798218-.5243225-8.7614441-5.0099182-8.7614441H173.2272034L111.3847504 393.1437378zM273.9832764 393.1437378l1.712616-.1282654 25.3288879-1.8874207 10.5089722-.7806702 9.7051392-.7221985 10.7769775-.8039856 13.9110718-1.0369263 35.5698242-2.6447449-3.5767212-30.000824-1.3981018-11.7556152-1.0835266-9.0875244v-.0116577l-.2446899-2.0622253h-59.151123c-7.6079407 0-14.5518188 4.3573914-17.8955994 11.2079163l-12.4313965 25.5736084v.0116577l-2.8427734 5.8370361L273.9832764 393.1437378zM390.2348633 332.2216797l4.8816833 37.6903076.3379211 2.598114 1.2349854 9.5769043.3378601 2.5632629 21.9850464-1.3748474 10.3692322-.6523743h.0116577l9.5769348-.5942078 10.6371765-.6641846 13.7479248-.8621216 8.0507202-.5009155c8.2254639-.5243835 13.7945251-8.5867615 11.382782-16.462738l-.6756897-2.1785278v-.0116577l-2.9010925-9.4606018c-.0582581-.1863098-.1164856-.3727722-.1864014-.5592041-.7922363-2.4581604-1.8990784-4.753479-3.2505493-6.8622131-1.1767273-1.8409119-2.5515137-3.5302124-4.0777588-5.0332031-1.65448-1.6659851-3.4952393-3.122345-5.4875488-4.3457336-4.8467102-2.982666-10.5556335-4.6020203-16.5441589-4.4390259l-2.6563416.0699768-10.8935242.2912598-2.9592896.0816345L390.2348633 332.2216797z" class="colord4c6ff svgShape"/><circle cx="216.468" cy="475.662" r="41.987" fill="#23246a" class="color48236a svgShape"/><circle cx="216.468" cy="475.662" r="25.483" fill="#e3e3fc" class="colore6e3fc svgShape"/><circle cx="216.468" cy="475.662" r="17.353" fill="#c6c7ff" class="colord4c6ff svgShape"/><circle cx="447.405" cy="475.662" r="41.987" fill="#23246a" class="color48236a svgShape"/><circle cx="447.405" cy="475.662" r="25.483" fill="#e3e3fc" class="colore6e3fc svgShape"/><circle cx="447.405" cy="475.662" r="17.353" fill="#c6c7ff" class="colord4c6ff svgShape"/><path fill="#23246a" d="M13.0869904,451.1469421v15.7777405h130.088501c0-8.715271-7.0624695-15.7777405-15.7777328-15.7777405         H13.0869904z" class="color48236a svgShape"/><path fill="#505186" d="M13.2763014,439.6211548h127.0451279c4.7253265,0,8.5550995-3.8297729,8.5550995-8.5551147         c0-2.3663025-0.9611359-4.4995728-2.5045929-6.0505066c-1.5509338-1.543457-3.6842041-2.5045776-6.0505066-2.5045776         H17.856041C15.3877029,427.7823486,13.8005075,433.5487976,13.2763014,439.6211548z" class="color7e5086 svgShape"/><polygon fill="#6a6cff" points="37.645 422.511 109.271 422.511 122.726 439.621 24.19 439.621" class="color6a86ff svgShape"/><polygon fill="#e3e3fc" points="51.009 422.511 95.908 422.511 104.342 439.621 42.575 439.621" class="colore6e3fc svgShape"/><path fill="#505186" d="M266.0996704 390.0233765v10.2807007h25.5778503c6.6840515 0 12.1010132-5.4169922 12.1010132-12.1009216v-.0072937c0-6.6839294-5.4169617-12.1009216-12.1010132-12.1009216h-11.6495056C272.3322144 376.0949402 266.0996704 382.3274841 266.0996704 390.0233765zM379.5003357 401.2433472v5.1621704c0 1.0484924.8591003 1.9075928 1.9147949 1.9075928h12.6252136c1.0556946 0 1.914978-.8591003 1.914978-1.9075928v-5.1621704c0-1.0556946-.8592834-1.9076843-1.914978-1.9076843h-12.6252136C380.359436 399.3356628 379.5003357 400.1876526 379.5003357 401.2433472z" class="color7e5086 svgShape"/><path fill="#fe8300" d="M510.7392883,410.2570496c0,3.8516541,1.558197,7.3392639,4.0845032,9.8657227         c2.5266113,2.519165,6.0213623,4.0846863,9.8729858,4.0846863h3.15271v-19.4692383         c0-2.8323669-0.2766113-5.6645813-0.8081055-8.4386597h-2.3446045         C516.9863892,396.2995605,510.7392883,402.5466614,510.7392883,410.2570496z" class="colorfebb00 svgShape"/><path fill="#505186" d="M229.5712585,314.2652588h212.2394104c0-2.4100342-0.975708-4.5943298-2.5556335-6.1815186         c-1.5800781-1.5800781-3.7643433-2.555603-6.1743774-2.555603H238.3083801         C233.4810181,305.5281372,229.5712585,309.4378967,229.5712585,314.2652588z" class="color7e5086 svgShape"/><polygon fill="#ffffff" points="189.492 393.144 202.389 393.144 262.076 332.222 249.167 332.222" opacity=".15" class="colorfff svgShape"/><polygon fill="#ffffff" points="137.273 393.144 160.761 393.144 220.436 332.222 196.948 332.222" opacity=".15" class="colorfff svgShape"/><polygon fill="#ffffff" points="170.501 393.144 179.495 393.144 239.171 332.222 230.176 332.222" opacity=".15" class="colorfff svgShape"/><polygon fill="#ffffff" points="123.781 393.144 126.659 393.144 186.334 332.222 183.457 332.222" opacity=".15" class="colorfff svgShape"/><polygon fill="#ffffff" points="332.016 388.821 345.927 387.784 377.92 355.139 376.522 343.383" opacity=".15" class="colorfff svgShape"/><polygon fill="#ffffff" points="275.696 393.015 301.025 391.128 358.731 332.222 335.243 332.222" opacity=".15" class="colorfff svgShape"/><polygon fill="#ffffff" points="311.534 390.347 321.239 389.625 375.438 334.296 375.438 334.284 377.466 332.222 368.471 332.222" opacity=".15" class="colorfff svgShape"/><polygon fill="#ffffff" points="282.873 374.852 324.629 332.222 321.752 332.222 285.716 369.003 285.716 369.015" opacity=".15" class="colorfff svgShape"/><path fill="#ffffff" d="M449.6073608 381.3646545l13.7479248-.8621216 18.7578125-19.1421814v-.0116577l-2.9010925-9.4606018c-.0582581-.1863098-.1164856-.3727722-.1864014-.5592041L449.6073608 381.3646545zM396.6894531 382.0870056l.3378601 2.5632629 21.9850464-1.3748474 47.1973877-48.1876831c-4.8467102-2.982666-10.5556335-4.6020203-16.5441589-4.4390259l-2.6563416.0699768L396.6894531 382.0870056zM429.3932495 382.6230469l9.5769348-.5942078 36.8048706-37.5621643c-1.1767273-1.8409119-2.5515137-3.5302124-4.0777588-5.0332031L429.3932495 382.6230469z" opacity=".15" class="colorfff svgShape"/><polygon fill="#ffffff" points="395.117 369.912 395.454 372.51 436.116 331.01 433.156 331.092" opacity=".15" class="colorfff svgShape"/><path fill="#53d86a" d="M402.7184753,551.8415527c-0.243042,0-0.485199-0.0983276-0.6616821-0.291687             c-0.4085693-0.4468994-3.9705505-4.4535522-3.2576294-7.5119629             c0.1843567-0.7919922,0.7431335-1.8679199,2.356842-2.4978638             c1.4394226-0.5609741,2.7216492-0.4974976,3.8137817,0.1898193             c2.4501343,1.5419312,2.8267517,5.6383667,2.8613586,6.1005859             c0.0372009,0.4935303-0.3323975,0.9233398-0.8259277,0.9612427             c-0.4952698,0.03479-0.9239807-0.3321533-0.9625244-0.8252563             c-0.0783997-1.0074463-0.5960083-3.819519-2.0306091-4.7198486             c-0.5916138-0.3710938-1.312439-0.3831787-2.2035828-0.0354614             c-0.9607849,0.3748779-1.1806335,0.8833008-1.2625122,1.2329712             c-0.4234619,1.8114014,1.9649353,4.9420776,2.8346252,5.895813             c0.3336792,0.3659058,0.3078613,0.9329834-0.057373,1.2669067             C403.1511536,551.7637939,402.9343872,551.8415527,402.7184753,551.8415527z" class="colord3d3d3 svgShape"/><polygon fill="#167ffc" points="376.994 569.523 443.16 569.523 442.739 566.719 439.199 542.925 413.828 542.925 380.878 566.719" class="color3e195f svgShape"/><polygon fill="#010101" points="376.994 569.523 443.16 569.523 442.739 566.719 380.878 566.719" opacity=".3" class="color010101 svgShape"/><rect width="68.531" height="2.804" x="375.811" y="568.12" fill="#010101" class="color010101 svgShape"/><polygon fill="#ffd7ad" points="413.883 542.921 412.771 519.516 436.896 526.514 437.326 542.921" class="colorffadbf svgShape"/><path fill="#53d86a" d="M403.3578491 557.1185913c-.2211609 0-.4422913-.0809937-.6152649-.2445679-2.3205261-2.1884766-6.061615-1.3798218-6.0992737-1.371521-.4812622.1077271-.9625549-.1937866-1.0720215-.6761475s.190918-.961853.6730652-1.0724487c.1904907-.0438232 4.704071-1.0380859 7.7287598 1.8156128.3604126.3397827.3770447.9073486.0372314 1.2677612C403.8338623 557.024231 403.5960693 557.1185913 403.3578491 557.1185913zM406.3763733 554.4587402c-.349884 0-.6818237-.2060547-.8263245-.5476074-.1002808-.225769-1.0404968-2.1098633-4.201355-1.3262329-.4804077.1184692-.9673462-.1743164-1.0860291-.6549072-.1191101-.480835.1742859-.9671631.6551208-1.0862427 3.80896-.9445801 5.7800293 1.1418457 6.2875671 2.37677.1882935.4580688-.0302124.9819946-.4882813 1.1705322C406.6054077 554.4370728 406.4898071 554.4587402 406.3763733 554.4587402z" class="colord3d3d3 svgShape"/><path fill="#53d86a" d="M414.0000305 561.3598022c-.4182129 0-.7921753-.2938232-.8780212-.7192383-1.9539795-9.659729-8.1876831-10.5914307-8.2503052-10.5997314-.4909058-.0648193-.8364258-.5154419-.7716064-1.0065308.0648193-.491333.5193787-.8364258 1.0063477-.7718506.3078308.0407104 7.5684509 1.1212769 9.7733459 12.022522.0985413.4854126-.2154541.9585571-.7010803 1.0568848C414.1187134 561.3538818 414.0587158 561.3598022 414.0000305 561.3598022zM477.0752258 551.8415527c-.243042 0-.4852295-.0983276-.6617126-.291687-.4085693-.4468994-3.9705505-4.4535522-3.2576294-7.5119629.1843567-.7919922.7431335-1.8679199 2.356842-2.4978638 1.4394226-.5609741 2.7216492-.4974976 3.8138123.1898193 2.4501343 1.5419312 2.8267212 5.6383667 2.8613281 6.1005859.0372314.4935303-.3323975.9233398-.8258972.9612427-.4953003.03479-.9240112-.3321533-.9625549-.8252563-.0783691-1.0074463-.5960083-3.819519-2.0306091-4.7198486-.5916138-.3710938-1.3124084-.3831787-2.2035828-.0354614-.9607849.3748779-1.180603.8833008-1.2625122 1.2329712-.4234619 1.8114014 1.9649353 4.9420776 2.8346252 5.895813.3336792.3659058.3078613.9329834-.057373 1.2669067C477.5078735 551.7637939 477.2911072 551.8415527 477.0752258 551.8415527z" class="colord3d3d3 svgShape"/><polygon fill="#167ffc" points="451.351 569.523 517.517 569.523 517.096 566.719 513.556 542.925 488.184 542.925 455.235 566.719" class="color3e195f svgShape"/><polygon fill="#010101" points="451.351 569.523 517.517 569.523 517.096 566.719 455.235 566.719" opacity=".3" class="color010101 svgShape"/><rect width="68.531" height="2.804" x="450.167" y="568.12" fill="#010101" class="color010101 svgShape"/><polygon fill="#ffd7ad" points="488.24 542.921 487.127 519.516 511.252 526.514 511.683 542.921" class="colorffadbf svgShape"/><path fill="#53d86a" d="M477.7145691 557.1185913c-.2211609 0-.4422913-.0809937-.6152649-.2445679-2.3205261-2.1884766-6.061615-1.3798218-6.0992737-1.371521-.4812622.1077271-.9625244-.1937866-1.0720215-.6761475-.1094666-.4823608.1909485-.961853.6730957-1.0724487.1904907-.0438232 4.704071-1.0380859 7.7287292 1.8156128.3604126.3397827.3770447.9073486.0372314 1.2677612C478.1905823 557.024231 477.9527893 557.1185913 477.7145691 557.1185913zM480.7331238 554.4587402c-.3499146 0-.6818542-.2060547-.826355-.5476074-.1002808-.225769-1.0404968-2.1098633-4.201355-1.3262329-.4803772.1184692-.9673462-.1743164-1.0860291-.6549072-.1191101-.480835.1742859-.9671631.6551208-1.0862427 3.8089905-.9445801 5.7800293 1.1418457 6.2875671 2.37677.188324.4580688-.0302124.9819946-.4882813 1.1705322C480.9621277 554.4370728 480.8465271 554.4587402 480.7331238 554.4587402z" class="colord3d3d3 svgShape"/><path fill="#53d86a" d="M488.3567505,561.3598022c-0.4182129,0-0.7921753-0.2938232-0.8780212-0.7192383              c-1.953949-9.659729-8.1876831-10.5914307-8.2503052-10.5997314              c-0.4908752-0.0648193-0.8363953-0.5154419-0.7716064-1.0065308              c0.0648193-0.491333,0.5193787-0.8364258,1.0063477-0.7718506              c0.3078613,0.0407104,7.5684509,1.1212769,9.7733459,12.022522              c0.0985413,0.4854126-0.2154541,0.9585571-0.7010803,1.0568848              C488.4754333,561.3538818,488.4154358,561.3598022,488.3567505,561.3598022z" class="colord3d3d3 svgShape"/><g fill="#000000" class="color000 svgShape"><polygon fill="#6a6cff" points="469.681 312.3 463.272 378.845 450.096 531.645 394.59 531.645 425.337 309.62" class="color6a86ff svgShape"/></g><g fill="#000000" class="color000 svgShape"><path fill="#595bd4" d="M463.2716064,378.8447876l-13.1759644,152.7999878h-0.6466064l-8.0959167-107.4445801           c-0.3555908-4.010376-0.2693787-8.0476685,0.2570801-12.0392151l6.4893799-49.2003784h3.25177L463.2716064,378.8447876z" class="color6a5aff svgShape"/></g><g fill="#000000" class="color000 svgShape"><path fill="#6a6cff" d="M451.6604919,307.6264648l-5.9866028,93.1003418           c-0.42276,6.5746765,0.2712708,13.1734314,2.0526733,19.5162659l26.2457886,109.5900574h49.3400269l-26.8467712-126.791748           l7.6186829-93.4195557L451.6604919,307.6264648z" class="color6a86ff svgShape"/></g><g fill="#000000" class="color000 svgShape"><path fill="#ffd7ad" d="M399.7966919,240.8747101l-7.7949524,17.6135712l-45.7379761-31.057724l-9.7702942,15.1603394           l54.5722046,46.5389252c7.7832947,6.530365,19.5121765,4.861969,25.1656799-3.5797729l24.9501953-37.2551422" class="colorffadbf svgShape"/><path fill="#23246a" d="M446.2731628,196.2183228l-3.1347046,0.1147308           c-17.9504089,0.6570129-33.9045715,11.6274719-40.9431152,28.1534271l-7.6054993,21.8928833l36.0851135,4.4656067           L446.2731628,196.2183228z" class="color48236a svgShape"/><path fill="#23246a" d="M507.6162415,316.9477844c-36.229187,11.3392944-67.4072876,7.0753174-88.3800964,0.7028503           l0.0093994-98.3509827c0-0.1593475-0.0093994-0.3093262-0.0093994-0.4685516           c0-8.8277435,5.5102844-16.7651367,13.8225708-19.8295593c4.9855042-1.8367157,10.2521057-2.7832184,15.5562744-2.7832184           h13.4289856c2.5957642,0,5.182251,0.1781158,7.749939,0.5153503l11.7328186,1.5556488           c10.0740662,1.3401337,17.7771912,9.6616821,18.3301086,19.810791L507.6162415,316.9477844z" class="color48236a svgShape"/><path fill="#ffd7ad" d="M512.9816895,252.3375244H484.178833l5.1252441,29.9664917l-43.0309143,29.1336365           l11.1833496,15.4796143l48.6179504-24.9049683c6.569519-4.3345032,10.3234863-11.8521423,9.8203735-19.7082825           L512.9816895,252.3375244z" class="colorffadbf svgShape"/><path fill="#23246a" d="M482.2289124,252.3375244h31.7469788l-1.6351318-26.3552551           c-0.6191711-6.308136-3.1540833-12.1036987-7.0725708-16.7380371           c-3.908783-4.6343536-12.7325439-7.9531097-18.84729-9.617218l-7.2757874,25.8618164           c-0.4016113,3.078537-0.4779663,6.1908569-0.2278137,9.2854614L482.2289124,252.3375244z" class="color48236a svgShape"/><path fill="#ffd7ad" d="M478.7734985,197.9246826c0.8514099,7.9071045-12.4571533,14.8122253-18.8718262,14.695282            c-8.2677002-0.1507263-14.520813-8.0590668-15.7592773-16.1770935            c2.7584229-0.2661896,5.6913452-0.3331146,8.5266113-0.2215729l-0.5083618-7.4058075l-0.4314575-5.5955658            l15.1434326-8.1350403l2.9184265,21.6479645L478.7734985,197.9246826z" class="colorffadbf svgShape"/><path fill="#ffc689" d="M466.8726196,175.0848846l0.0458984,0.4262695            c-0.1721191,0.4718781-0.367981,0.9318085-0.5932007,1.394516l0.0015869,0.0147095            c-2.5558167,5.3970795-8.1280823,14.8131409-13.7366028,15.8852997l-0.8611145-9.5857544L466.8726196,175.0848846z" class="colorff89a6 svgShape"/><path fill="#ffd7ad" d="M472.877533,163.9153595c0.1983643,1.8420563-0.5941162,3.5611572-1.9576111,4.6549683            c-1.4624634,1.1648712-2.6329956,2.634613-3.205719,4.4068451            c-0.2286682,0.7121277-0.5043335,1.4136658-0.842041,2.1069641l0.0015869,0.01474            c-2.8491211,6.0186157-9.9932251,12.0769043-16.0848999,12.091568            c-8.7460022,0.0409851-13.7301636-10.4388428-13.7749329-20.4975586            c-0.0023499-1.725235,0.1994934-3.3963776,0.5940247-4.9816589            c1.8486023-7.6512604,7.9322815-13.269516,15.1827087-13.3015747            c6.473877-0.0103302,12.0693359,4.4420471,14.5426025,10.8188934            C470.1473389,159.1238708,472.5800476,161.1526184,472.877533,163.9153595z" class="colorffadbf svgShape"/><path fill="#010101" d="M467.6577454,182.394577l-0.7824707-7.3122711            c0.3327637-0.6924591,0.6116028-1.3940277,0.8364563-2.1046143            c0.5576172-1.7268066,1.6279297-3.2109833,3.0759888-4.2992401            c1.4390869-1.0882568,2.2934875-2.8600769,2.0866394-4.7669525            c-0.296814-2.7611694-2.7252502-4.7848511-5.5403748-4.6859283            c-0.3058167,0.0180054-2.2755432,3.732605-2.7072449,4.1554108            c-0.4946899,0.485611-1.4840698,1.3940277-2.0776672,0.7014618            c-0.3148193-0.3777924-0.0450134-2.3294525-0.0539551-2.8511963            c-0.0180054-1.0702515-0.0360107-2.1405029-0.0539856-3.2198639            c-0.4857178,0.9803314-1.5379944,1.7719269-2.5723572,2.0955963            c-1.0433044,0.3238831-2.1495667,0.3508911-3.2288818,0.3508911            c-3.5346985,0.0088959-7.0604553-0.2428589-10.5591431-0.7645874            c-1.2052612-0.1708374-2.437439-0.3956909-3.5077515-0.9803314            c-0.944397-0.5216217-1.4478149-0.640564-1.7266235-1.6569061            c-4.1733093,0.296875-8.7695618-1.9407654-11.7106934-4.9537964            c-0.6835632-0.6925659-1.322113-1.5829773-1.196228-2.5454102            c0.1169434-0.908432,0.9354248-1.6100006,1.8168335-1.8977661            c0.1889038-0.062912,0.3777466-0.1079254,0.5756531-0.1349335            c-0.2069092-1.5469666-0.2338562-3.2827911-0.2788086-4.6319122            c-0.0539856-1.888855,0.3867188-3.8585358,1.6009216-5.3155823            c1.7718811-2.1316223,4.7759094-2.7342682,7.5371094-2.9052124            c1.5020142-0.0898132,3.0580444-0.0808105,4.4341431,0.5127258            c1.0793152,0.4677124,2.0326843,1.3761444,2.3924866,2.4644012            c0.7914734-0.4677124,1.6728821-0.8363953,2.491333-1.1602936            c2.4823914-0.9533234,4.9558105-1.9156494,7.4291992-2.8690796            c2.3475342-0.8994141,4.7399597-1.8168488,7.2492981-1.8977661            c2.5093994-0.0719147,5.1896667,0.84552,6.5927429,2.9321136c1.394104,2.0775909,2.8241882,4.8748779,0.5935974,6.0171661            C496.9697266,148.8822632,467.6577454,182.394577,467.6577454,182.394577z" class="color010101 svgShape"/><polygon fill="#010101" points="447.513 176.841 442.318 175.385 444.585 162.403 446.555 162.746 444.599 173.947 448.053 174.915" class="color010101 svgShape"/><path fill="#ffd7ad" d="M446.2731628,311.4376526l11.1833496,15.4796143c0,0-16.2961426,12.8481445-19.0512695,13.8087158            c-4.5107727,1.5749207-4.4669189-2.5522156-4.4669189-2.5522156            c-3.6327515,0.8269958-3.4776611-2.7477112-3.4776611-2.7477112            c-3.9199829-0.5450745-3.2672424-4.2144165-3.2672424-4.2144165            c-1.3261719-0.2728271-1.9271545-1.0078125-2.1704712-1.799408            c-0.3702698-1.2116089,0.1737671-2.5240784,1.1965942-3.2678528l5.9385681-4.2627563            c-2.1549377,0.8627625-3.1853333,0.1575928-3.6576843-0.8514709            c-0.6440735-1.3520813-0.1150208-2.9909363,1.1045532-3.8619385l3.824585-2.710907            c0.8991699-0.6386414,1.9366455-1.0439758,3.0273132-1.1943359L446.2731628,311.4376526z" class="colorffadbf svgShape"/></g><g fill="#000000" class="color000 svgShape"><path fill="#ffa444" d="M507.9939575,431.5949402v122.7223816c0,4.1865845,3.3984985,7.585144,7.5932007,7.585144h89.8869629           c4.1947021,0,7.5932007-3.3985596,7.5932007-7.585144V431.5949402c0-4.1946106-3.3984985-7.5931702-7.5932007-7.5931702           h-89.8869629C511.3924561,424.00177,507.9939575,427.4003296,507.9939575,431.5949402z" class="colorff449c svgShape"/><path fill="#3f41d8" d="M507.9939575 431.8001709v-.2052307c0-4.1946106 3.3984985-7.5931702 7.5932007-7.5931702h89.8869629c4.1947021 0 7.5932007 3.3985596 7.5932007 7.5931702v.2052307H507.9939575zM613.0673218 554.1040649v.2052612c0 4.1945801-3.3984985 7.5931396-7.5932007 7.5931396h-89.8869629c-4.1947021 0-7.5932007-3.3985596-7.5932007-7.5931396v-.2052612H613.0673218z" class="colord83f9a svgShape"/><path fill="#167ffc" d="M521.9476318 561.9024658v5.343811c0 2.0357666 1.6582031 3.6939697 3.6939697 3.6939697 2.0440674 0 3.6939697-1.6582031 3.6939697-3.6939697v-5.343811H521.9476318zM591.725647 561.9024658v5.343811c0 2.0357666 1.6582031 3.6939697 3.6939697 3.6939697 2.0440674 0 3.6940308-1.6582031 3.6940308-3.6939697v-5.343811H591.725647z" class="color3e195f svgShape"/><path fill="#23246a" d="M544.0800781,419.5197449v4.4820251h32.901062v-4.4820251          c0-3.1192017-2.5283203-5.6395569-5.6394653-5.6395569h-21.6221313          C546.6083984,413.880188,544.0800781,416.4005432,544.0800781,419.5197449z" class="color48236a svgShape"/><rect width="20.864" height="4.31" x="550.099" y="419.692" fill="#ffffff" transform="rotate(-180 560.53 421.847)" class="colorfff svgShape"/><rect width="5.609" height="46.927" x="585.431" y="377.074" fill="#23246a" transform="rotate(-180 588.236 400.538)" class="color48236a svgShape"/><rect width="5.609" height="46.927" x="530.021" y="377.074" fill="#23246a" transform="rotate(-180 532.826 400.538)" class="color48236a svgShape"/><path fill="#23246a" d="M523.1967773,373.0411377c0,1.1166687,0.4514771,2.1179504,1.1820679,2.8486328          c0.7305298,0.7307129,1.7402954,1.1820374,2.8566895,1.1820374h66.5901489          c2.2328491,0,4.0388184-1.8061218,4.0388184-4.0306702c0-1.1163025-0.4514771-2.1259766-1.1820679-2.8566895          c-0.7305908-0.7306824-1.7402954-1.1820068-2.8567505-1.1820068h-66.5901489          C525.0027466,369.0024414,523.1967773,370.8085327,523.1967773,373.0411377z" class="color48236a svgShape"/><g fill="#000000" class="color000 svgShape"><path fill="#fe8300" d="M520.0363159,506.6787109v22.0985718c0,4.8924561,3.9649048,8.8654175,8.8656006,8.8654175           h63.2573853c4.9007568,0,8.8656006-3.9729614,8.8656006-8.8654175v-22.0985718           c0-4.9004517-3.9648438-8.865387-8.8656006-8.865387h-63.2573853           C524.0012207,497.813324,520.0363159,501.7782593,520.0363159,506.6787109z" class="colorfebb00 svgShape"/><path fill="#ffffff" d="M525.0929565,510.7342529c0,0.7222595,0.5828857,1.3050537,1.3052368,1.3050537h68.2648315           c0.7223511,0,1.3052368-0.5827942,1.3052368-1.3050537c0-0.7142944-0.5828857-1.2970886-1.3052368-1.2970886h-68.2648315           C525.6758423,509.4371643,525.0929565,510.0199585,525.0929565,510.7342529z" class="colorfff svgShape"/><path fill="#fe8300" d="M520.0363159,457.1269531v22.0985718c0,4.8924561,3.9649048,8.8654175,8.8656006,8.8654175           h63.2573853c4.9007568,0,8.8656006-3.9729614,8.8656006-8.8654175v-22.0985718           c0-4.9004517-3.9648438-8.865387-8.8656006-8.865387h-63.2573853           C524.0012207,448.2615662,520.0363159,452.2265015,520.0363159,457.1269531z" class="colorfebb00 svgShape"/><path fill="#ffffff" d="M525.0929565,461.1824951c0,0.72229,0.5828857,1.3050842,1.3052368,1.3050842h68.2648315           c0.7223511,0,1.3052368-0.5827942,1.3052368-1.3050842c0-0.7142639-0.5828857-1.2970581-1.3052368-1.2970581h-68.2648315           C525.6758423,459.885437,525.0929565,460.4682312,525.0929565,461.1824951z" class="colorfff svgShape"/></g></g><g fill="#000000" class="color000 svgShape"><path fill="#ffd7ad" d="M346.2637634,227.4305573l-9.7702942,15.1603394l-17.1393738-0.9377289        c-5.2944031,0.2499084-10.302063-2.430954-13.0317383-6.9762878l-2.393219-3.986969        c-0.8844604-1.4628601,0.0596924-3.3569031,1.763092-3.528717l24.7747803-0.8495026l-3.353363-5.8640442        c-0.4800415-0.6895447-0.7355652-1.4810944-0.7728882-2.2717285c-0.0638123-1.352417,0.503479-2.7110748,1.6323242-3.6145172        c1.6700745-1.3535156,4.0746765-1.2718506,5.6702576,0.1686401L346.2637634,227.4305573z" class="colorffadbf svgShape"/></g><g fill="#000000" class="color000 svgShape"><path fill="#6061a6" d="M227.2492371,152.2977142v9.1728516h-13.6261139v-9.1728516          c0-3.7622375,3.0508118-6.8130646,6.8130493-6.8130646c1.8811188,0,3.5834808,0.7618103,4.8173676,1.995697          C226.4873505,148.7142334,227.2492371,150.4165955,227.2492371,152.2977142z" class="color6a60a6 svgShape"/><path fill="#4c4d91" d="M227.2478333,152.2989044v9.1707001h-1.3841095v-8.4786377          c0-1.8822937-0.7593536-3.5828857-1.9931335-4.8167725c-1.2338715-1.2336884-2.9383392-1.996994-4.8167725-1.996994          c-0.8185272,0-1.601532,0.1423187-2.3292084,0.4074402c1.0677185-0.6961212,2.341095-1.0994873,3.7133179-1.0994873          c1.8784332,0,3.582901,0.7633057,4.8167725,1.996994          C226.4884796,148.7160187,227.2478333,150.4166107,227.2478333,152.2989044z" class="color4d4c91 svgShape"/><circle cx="220.436" cy="203.139" r="44.926" fill="#6061a6" class="color6a60a6 svgShape"/><circle cx="220.436" cy="203.139" r="38.03" fill="#e3e3fc" class="colore6e3fc svgShape"/><circle cx="220.436" cy="203.139" r="35.328" fill="#ffffff" class="colorfff svgShape"/><polygon fill="#ffa444" points="227.228 200.326 213.644 205.952 211.795 182.277" class="colorff449c svgShape"/><polygon fill="#6a6cff" points="227.228 200.326 229.078 224.002 213.644 205.952" class="color6a86ff svgShape"/><polygon fill="#595bd4" points="227.228 200.326 229.078 224.002 220.436 203.139" class="color6a5aff svgShape"/><polygon fill="#3f41d8" points="227.228 200.326 220.436 203.139 211.795 182.277" class="colord83f9a svgShape"/><circle cx="220.436" cy="203.139" r="3.676" fill="#23246a" class="color48236a svgShape"/><circle cx="220.436" cy="203.139" r="2.219" fill="#e3e3fc" class="colore6e3fc svgShape"/><g fill="#000000" class="color000 svgShape"><path fill="#afb0ff" d="M221.5210266,172.2090302v2.9119415c0,0.6504974-0.5337982,1.1794281-1.1841736,1.1794281        c-0.6551056,0-1.1841583-0.5289307-1.1841583-1.1794281v-2.9119415c0-0.6552429,0.5290527-1.1841736,1.1841583-1.1841736        c0.3251343,0,0.6212311,0.1310577,0.8348694,0.344574        C221.3852386,171.5829315,221.5210266,171.8838959,221.5210266,172.2090302z" class="colorb4afff svgShape"/></g><g fill="#000000" class="color000 svgShape"><path fill="#afb0ff" d="M189.5817871,202.0856323h2.9119415c0.6504974,0,1.1794281,0.533783,1.1794281,1.1841583        c0,0.6551208-0.5289307,1.1841736-1.1794281,1.1841736h-2.9119415c-0.6552429,0-1.1841736-0.5290527-1.1841736-1.1841736        c0-0.325119,0.1310577-0.6212311,0.344574-0.8348541        C188.9557037,202.2214203,189.2566528,202.0856323,189.5817871,202.0856323z" class="colorb4afff svgShape"/></g><g fill="#000000" class="color000 svgShape"><path fill="#afb0ff" d="M219.4583893,234.0248718v-2.9119568c0-0.6504822,0.533783-1.1794128,1.1841736-1.1794128        c0.6551056,0,1.1841583,0.5289307,1.1841583,1.1794128v2.9119568c0,0.6552277-0.5290527,1.1841583-1.1841583,1.1841583        c-0.3251343,0-0.6212311-0.1310425-0.8348694-0.3445587        C219.5941772,234.6509552,219.4583893,234.3500061,219.4583893,234.0248718z" class="colorb4afff svgShape"/></g><g fill="#000000" class="color000 svgShape"><path fill="#afb0ff" d="M251.3976288,204.1482544h-2.9119415c-0.6504974,0-1.1794281-0.533783-1.1794281-1.1841583        c0-0.6551208,0.5289307-1.1841583,1.1794281-1.1841583h2.9119415c0.6552429,0,1.1841583,0.5290375,1.1841583,1.1841583        c0,0.3251343-0.1310425,0.6212311-0.3445587,0.8348694        C252.0237122,204.0124817,251.7227631,204.1482544,251.3976288,204.1482544z" class="colorb4afff svgShape"/></g></g><g fill="#000000" class="color000 svgShape"><path fill="#fe8300" d="M418.740387,75.3327179c-10.0935364,0-18.2753906,8.1914597-18.2753906,18.2830582        c0,5.5733337,2.820343,11.5778503,6.2451477,16.8142853c5.2941589,8.0933228,12.0302429,14.3519211,12.0302429,14.3519211        s6.7361145-6.2585983,12.0283203-14.3519211c3.4248352-5.2364349,6.2451782-11.2409515,6.2451782-16.8142853        C437.0138855,83.5241776,428.8397217,75.3327179,418.740387,75.3327179z M418.740387,84.5233154        c5.0246582,0,9.0924683,4.0678101,9.0924683,9.0924606c0,5.0169373-4.0678101,9.094429-9.0924683,9.094429        c-5.0265198,0-9.0943909-4.0774918-9.0943909-9.094429C409.6459961,88.5911255,413.7138672,84.5233154,418.740387,84.5233154z        " class="colorfebb00 svgShape"/><path fill="#fe9526" d="M418.740387,83.0255966c-5.8543701,0-10.5921326,4.7377548-10.5921326,10.5901794        c0,5.8428345,4.7377625,10.5921555,10.5921326,10.5921555c5.852478,0,10.59021-4.749321,10.59021-10.5921555        C429.3305969,87.7633514,424.592865,83.0255966,418.740387,83.0255966z M418.740387,102.7102051        c-5.0265198,0-9.0943909-4.0774918-9.0943909-9.094429c0-5.0246506,4.0678711-9.0924606,9.0943909-9.0924606        c5.0246582,0,9.0924683,4.0678101,9.0924683,9.0924606        C427.8328552,98.6327133,423.7650452,102.7102051,418.740387,102.7102051z" class="colorf49908 svgShape"/></g><g fill="#000000" class="color000 svgShape"><path fill="#ffa444" d="M63.776001,267.6522522c-10.0935249,0-18.2753944,8.1914368-18.2753944,18.2830505        c0,5.5733337,2.820343,11.5778503,6.2451591,16.81427c5.2941513,8.0933228,12.0302353,14.3519287,12.0302353,14.3519287        s6.7361069-6.258606,12.0283279-14.3519287c3.4248199-5.2364197,6.2451859-11.2409363,6.2451859-16.81427        C82.0495148,275.843689,73.8753281,267.6522522,63.776001,267.6522522z M63.776001,276.8428345        c5.0246506,0,9.0924835,4.0678101,9.0924835,9.0924683c0,5.0169373-4.0678329,9.0944214-9.0924835,9.0944214        c-5.0265312,0-9.0943871-4.0774841-9.0943871-9.0944214C54.6816139,280.9106445,58.7494698,276.8428345,63.776001,276.8428345        z" class="colorff449c svgShape"/><path fill="#3f41d8" d="M63.776001,275.3451233c-5.854351,0-10.5921326,4.7377625-10.5921326,10.5901794        c0,5.8428345,4.7377815,10.5921631,10.5921326,10.5921631c5.8524704,0,10.5902252-4.7493286,10.5902252-10.5921631        C74.3662262,280.0828857,69.6284714,275.3451233,63.776001,275.3451233z M63.776001,295.0297241        c-5.0265312,0-9.0943871-4.0774841-9.0943871-9.0944214c0-5.0246582,4.0678558-9.0924683,9.0943871-9.0924683        c5.0246506,0,9.0924835,4.0678101,9.0924835,9.0924683C72.8684845,290.95224,68.8006516,295.0297241,63.776001,295.0297241z" class="colord83f9a svgShape"/></g><g fill="#000000" class="color000 svgShape"><path fill="#9395f9" d="M129.5615234,95.9573517c5.8067627,1.1234894,8.9225769,8.3325043,8.9225769,8.3325043H41.0437813     c0,0,1.5579109-12.3583221,12.7465553-11.9838257s12.7465515,4.7748108,12.7465515,4.7748108     s-2.4076843-14.1371765,10.0556183-14.1371765s22.2356491,14.6052933,22.2356491,14.6052933     s3.399086-5.0556793,10.4805069-3.9321976c7.0814133,1.1234894,10.0556107,5.8046722,10.0556107,5.8046722     S123.7547531,94.8338699,129.5615234,95.9573517L129.5615234,95.9573517z" class="colorf693f9 svgShape"/></g><g fill="#000000" class="color000 svgShape"><path fill="#9395f9" d="M354.4930725,120.0347061c3.9034729,0.7552414,5.9980164,5.6013489,5.9980164,5.6013489h-65.5021362     c0,0,1.0472717-8.3076096,8.5686035-8.0558701c7.5213013,0.2517471,8.568573,3.2097626,8.568573,3.2097626     s-1.6184998-9.5034027,6.7596741-9.5034027s14.9474487,9.8180847,14.9474487,9.8180847s2.2849426-3.3985672,7.0452576-2.6433334     c4.7603455,0.7552414,6.7596741,3.9020615,6.7596741,3.9020615S350.5895996,119.2794724,354.4930725,120.0347061     L354.4930725,120.0347061z" class="colorf693f9 svgShape"/></g><g fill="#000000" class="color000 svgShape"><path fill="#9395f9" d="M595.159729,126.3553925c3.9034424,0.7552414,5.9979858,5.6013489,5.9979858,5.6013489h-65.5020752     c0,0,1.0472412-8.3076172,8.5686035-8.0558701c7.5213013,0.2517471,8.5685425,3.2097626,8.5685425,3.2097626     s-1.6184692-9.5034027,6.7597046-9.5034027s14.9473877,9.8180847,14.9473877,9.8180847s2.2849731-3.3985672,7.0452881-2.6433334     c4.760376,0.7552414,6.7597046,3.9020538,6.7597046,3.9020538S591.2562866,125.6001587,595.159729,126.3553925     L595.159729,126.3553925z" class="colorf693f9 svgShape"/></g><g fill="#000000" class="color000 svgShape"><path fill="#505186" d="M542.2533569,327.8446045c-0.4506836,0-0.859375-0.3066406-0.9707031-0.7636719    c-0.1303711-0.5366211,0.1987305-1.0776367,0.7353516-1.2080078c9.7319336-2.3652344,18.2666016-9.0986328,22.8310547-18.012207    c1.4228516-2.7792969,2.4487305-5.7475586,3.0717773-8.7983398c-2.8378906,0.5532227-5.8579102,0.605957-8.9233398,0.1245117    c-7.2944336-1.1459961-13.4086914-5.0927734-16.7749023-10.828125c-2.6552734-4.5229492-3.215332-10.5961914-1.4272461-15.4716797    c1.331543-3.6298828,3.8681641-6.2607422,7.1430664-7.4082031c8.1743164-2.8662109,16.6079102,4.1430664,20.0336914,12.5756836    c2.3442383,5.7700195,3.1357422,12.1181641,2.4082031,18.2866211c2.4477539-0.8398438,4.6791992-2.1210938,6.5737305-3.8110352    c8.3208008-7.4243164,9.6435547-20.1401367,9.9145508-29.059082c0.4501953-14.8198395-1.0595703-29.6933746-4.4873047-44.2075348    c-0.1269531-0.5375977,0.2055664-1.0761719,0.7431641-1.203125c0.5385742-0.1293945,1.0761719,0.2060547,1.203125,0.7431641    c3.4677734,14.6850586,4.9956055,29.7333984,4.5400391,44.7280426    c-0.2822266,9.2880859-1.6865234,22.5537109-10.5825195,30.4907227c-2.3452148,2.0927734-5.1518555,3.6166992-8.2304688,4.5209961    c-0.6333008,3.5507813-1.7768555,7.0097656-3.425293,10.2285156    c-4.8256836,9.4248047-13.8496094,16.5439453-24.1386719,19.0444336    C542.4110718,327.8358154,542.3314819,327.8446045,542.2533569,327.8446045z M551.6771851,266.8436279    c-1.0283203,0-2.059082,0.1660156-3.0776367,0.5229492c-3.4604492,1.2124023-5.1328125,4.0454102-5.9262695,6.2089844    c-1.5908203,4.3369141-1.090332,9.7421875,1.2739258,13.7705078c3.0620117,5.2167969,8.6606445,8.8125,15.3603516,9.8647461    c3.1064453,0.4882813,6.1542969,0.3828125,8.9804688-0.2709961c0.8652344-6.0942383,0.1542969-12.4140625-2.168457-18.1323242    C563.5526733,272.489624,557.6723022,266.8436279,551.6771851,266.8436279z" class="color7e5086 svgShape"/></g><g fill="#000000" class="color000 svgShape"><path fill="#505186" d="M580.6449585,209.9505463c-0.4296875,0-0.8266602-0.2792969-0.9570313-0.7119141    c-1.2353516-4.0952148-2.6416016-8.1875-4.1801758-12.1625977c-0.1992188-0.5151367,0.0566406-1.0942383,0.5717773-1.293457    c0.5166016-0.1977539,1.0942383,0.0566406,1.293457,0.5717773c1.5566406,4.0219727,2.9799805,8.1625977,4.2299805,12.3071289    c0.1591797,0.5288086-0.1401367,1.0864258-0.6689453,1.2460938    C580.8378296,209.9363861,580.7406616,209.9505463,580.6449585,209.9505463z" class="color7e5086 svgShape"/></g><g fill="#000000" class="color000 svgShape"><path fill="#505186" d="M55.2201385,241.9437103c-0.3769531,0.0004883-0.7382813-0.2143555-0.9077148-0.5791016    c-5.3339844-11.4887695-7.3481445-24.3642578-5.8579102-36.902832c-1.5571289-0.3520508-3.0625-0.9472656-4.4443359-1.7822266    c-4.2919922-2.5942383-7.0893555-7.3178711-7.3012695-12.3276367c-0.2353516-5.5791016,2.6430664-10.7993164,4.956543-14.9941406    l13.078125-23.7163086c0.2661133-0.4838867,0.8730469-0.659668,1.3583984-0.3925781    c0.4833984,0.2666016,0.659668,0.8745117,0.3925781,1.3583984l-13.078125,23.7163086    c-2.1923828,3.9760742-4.9213867,8.9243164-4.7094727,13.9438477c0.1811523,4.2827148,2.6689453,8.4829102,6.3374023,10.7001953    c1.1333008,0.6845703,2.3808594,1.1816406,3.6791992,1.487793c0.2451172-1.6425781,0.5507813-3.277832,0.9174805-4.9013672    c1.2407227-5.4887695,4.699707-10.675293,9.6289063-9.9140625c1.5625,0.2431641,2.984375,1.1533203,4.0029297,2.5625    c1.1679688,1.6152344,1.6767578,3.7158203,1.3608398,5.6201172c-0.5185547,3.1289063-2.8793945,5.9658203-6.3149414,7.5888672    c-2.4628906,1.1635742-5.203125,1.6142578-7.8876953,1.3632813c-1.4296875,12.1484375,0.527832,24.6176758,5.6958008,35.7480469    c0.2324219,0.5004883,0.0146484,1.0952148-0.4863281,1.328125    C55.5043182,241.9139252,55.3612518,241.9437103,55.2201385,241.9437103z M50.6981659,202.7708588    c2.3193359,0.1992188,4.6845703-0.1845703,6.7661133-1.1679688c2.800293-1.3222656,4.7910156-3.6625977,5.1967773-6.1074219    c0.2299805-1.3886719-0.1469727-2.9291992-1.0087891-4.1210938c-0.7036133-0.9731445-1.6586914-1.5976563-2.6899414-1.7578125    c-3.6274414-0.5703125-6.3681641,3.9458008-7.3701172,8.378418    C51.234787,199.5770111,50.9369354,201.1702728,50.6981659,202.7708588z" class="color7e5086 svgShape"/></g><g fill="#000000" class="color000 svgShape"><path fill="#505186" d="M59.2797089,146.484726c-0.1630859,0-0.3286133-0.0400391-0.4819336-0.1245117    c-0.4833984-0.2666016-0.659668-0.8745117-0.3925781-1.3583984l4.6938477-8.5117188    c0.2661133-0.4833984,0.8745117-0.659668,1.3583984-0.3925781c0.4833984,0.2666016,0.659668,0.8745117,0.3925781,1.3583984    l-4.6938477,8.5117188C59.9740448,146.2982025,59.6322479,146.484726,59.2797089,146.484726z" class="color7e5086 svgShape"/></g></svg>