<svg xmlns="http://www.w3.org/2000/svg" enable-background="new 0 0 67 67" viewBox="0 0 67 67" class="d-none"><path d="M13.98145,65.479c2.96643,0,5.59137-1.92798,6.55017-4.66016h21.74097c0.9649,2.73743,3.5863,4.66016,6.54871,4.66016&#10;&#9;&#9;&#9;c3.06219,0,5.72931-2.02563,6.6261-4.88733l10.10144-1.54919l-0.29419-2.68359h0.00317l-0.49316-4.46973&#10;&#9;&#9;&#9;c-0.57533-4.77961-4.1334-5.70443-8.21588-6.64447c-5.43994-3.68878-11.67017-5.96216-18.19232-6.68024v-3.19873h-7.93359&#10;&#9;&#9;&#9;c-2.08789,0-2.62695-1.83887-2.75-2.47656v-0.27344c0-1.5166,1.2334-2.75,2.83789-2.7539&#10;&#9;&#9;&#9;c1.27051-0.11133,2.49219-0.05664,3.6709-0.00391c2.80664,0.12402,5.70703,0.25586,6.97754-2.67578&#10;&#9;&#9;&#9;c0.60059-1.38281,0.46484-2.95996-0.36133-4.21973c-0.82715-1.26074-2.2207-2.0127-3.72754-2.0127h-9.39746v-0.81689&#10;&#9;&#9;&#9;c1.32043-1.53748,6.41016-7.6933,6.41016-11.20752c0-4.08252-3.32716-7.4043-7.41602-7.4043&#10;&#9;&#9;&#9;c-4.08301,0-7.4043,3.32178-7.4043,7.4043c0,3.52405,5.11023,9.70502,6.41016,11.22077v2.80365h11.39746&#10;&#9;&#9;&#9;c0.84375,0,1.59277,0.4043,2.05469,1.10938c0.46289,0.70508,0.53516,1.55273,0.19922,2.32715&#10;&#9;&#9;&#9;c-0.69238,1.59668-2.12793,1.60254-5.05273,1.47363c-1.18848-0.05566-2.53418-0.11328-3.84863,0.00586&#10;&#9;&#9;&#9;c-2.54102,0-4.62305,2.00684-4.74414,4.51855c-0.03906,0.18164-0.04688,0.40332-0.00781,0.6748&#10;&#9;&#9;&#9;c0.25484,1.80415,1.62834,4.30664,4.75195,4.30664h5.93359v1.02954c-2.11505-0.12842-4.25348-0.10345-6.40137,0.09839&#10;&#9;&#9;&#9;c-4.81152,0.46973-5.39258,0.94922-8.61914,3.6123c-1.2793,1.05566-3.0166,2.48926-5.66895,4.45313&#10;&#9;&#9;&#9;c-0.11687,0.02315-7.05424,1.39708-6.90332,1.36719c-4.39535,0.83988-7.3125,4.73028-7.3125,8.87207v4.02051h5.97125&#10;&#9;&#9;&#9;C8.39355,63.5932,10.97321,65.479,13.98145,65.479z M26.66699,3.521c2.98633,0,5.41602,2.42432,5.41602,5.4043&#10;&#9;&#9;&#9;c0,2.07129-3.06445,6.46289-5.41504,9.29883c-2.34668-2.83594-5.40527-7.22656-5.40527-9.29883&#10;&#9;&#9;&#9;C21.2627,5.94531,23.6875,3.521,26.66699,3.521z M13.98145,63.479c-2.82381,0-4.97949-2.28606-4.97949-4.9707&#10;&#9;&#9;&#9;c0-2.74609,2.2334-4.97949,4.97949-4.97949c2.74023,0,4.96973,2.2334,4.96973,4.97949&#10;&#9;&#9;&#9;C18.95117,61.28968,16.66578,63.479,13.98145,63.479z M20.94434,58.81885c0.00488-0.10254,0.00684-0.20703,0.00684-0.31055&#10;&#9;&#9;&#9;c0-0.51532-0.06-1.01624-0.16632-1.5h16.04913l5.7627-1.62201c-0.47253,0.9408-0.74512,1.99902-0.74512,3.12201&#10;&#9;&#9;&#9;c0,0.10352,0.00195,0.20801,0.00684,0.31055H20.94434z M48.82129,63.479c-2.30957,0-4.34668-1.62988-4.84668-3.89355&#10;&#9;&#9;&#9;c-0.08203-0.33984-0.12305-0.70215-0.12305-1.07715c0-2.74609,2.22949-4.97949,4.96973-4.97949s4.96973,2.2334,4.96973,4.97949&#10;&#9;&#9;&#9;c0,0.3457-0.0332,0.67676-0.09961,0.99316C53.22656,61.80615,51.17871,63.479,48.82129,63.479z M62.38684,50.70428&#10;&#9;&#9;&#9;c0.15256,0.37078,0.31063,0.74447,0.3905,1.41339l0.24658,2.24121h-0.52197c-1.00879,0-1.83008-0.82129-1.83008-1.83008&#10;&#9;&#9;&#9;C60.67188,51.55872,61.43176,50.76447,62.38684,50.70428z M35.0791,40.34937c3.2309,0.10052,6.39734,0.59247,9.44629,1.46503&#10;&#9;&#9;&#9;v3.80981c-3.85852,0.12689-8.18274,0.26874-12.30237,0.40314L35.0791,40.34937z M46.52539,42.43982&#10;&#9;&#9;&#9;c2.21973,0.76965,4.37054,1.73431,6.42139,2.9071c-1.72937,0.05701-3.93494,0.12976-6.42139,0.21155V42.43982z M22.6084,43.64893&#10;&#9;&#9;&#9;c3.08496-2.54688,3.33691-2.75488,7.53711-3.16406c0.89752-0.08478,1.80151-0.12793,2.70239-0.15106l-2.90045,5.76611&#10;&#9;&#9;&#9;c-0.00682,0.00021,0.26157-0.0082-7.16425,0.22089v0.00195c-0.92578,0.03125-2.34668,0.07813-3.65137,0.12207&#10;&#9;&#9;&#9;C20.61035,45.29736,21.71875,44.38232,22.6084,43.64893z M3.45117,58.81885v-2.02051c0-3.18861,2.24444-6.24891,5.69629-6.90918&#10;&#9;&#9;&#9;c7.86471-1.53472,6.53048-1.32951,7.64319-1.36627c42.88662-1.28286,41.94312-2.21495,44.46222,0.40247&#10;&#9;&#9;&#9;c-1.49713,0.52087-2.58099,1.93085-2.58099,3.60345c0,2.1123,1.71777,3.83008,3.83008,3.83008h0.742l0.10956,0.99609&#10;&#9;&#9;&#9;l-7.5625,1.16016c0-0.00195,0-0.00488,0-0.00684c0-3.84863-3.12695-6.97949-6.96973-6.97949&#10;&#9;&#9;&#9;c-1.3515,0-2.61029,0.39362-3.67981,1.06317l-8.58289,2.41632H20.00183c-1.20892-2.0769-3.45184-3.47949-6.02039-3.47949&#10;&#9;&#9;&#9;c-3.84774,0-6.98047,3.12999-6.98047,6.97949c0,0.10352,0.00195,0.20703,0.00684,0.31055H3.45117z" fill="#34a853" class="color000 svgShape"/><path d="M48.82129 55.5083c-1.6543 0-3 1.3457-3 3 0 1.6896 1.38359 3 3 3 1.69912 0 3-1.40517 3-3C51.82129 56.854 50.47559 55.5083 48.82129 55.5083zM49.56152 59.16846c-.55779.65223-1.74023.27969-1.74023-.66016 0-.56055.43945-1 1-1 .55176 0 1 .44824 1 1C49.82129 58.74463 49.7334 58.9751 49.56152 59.16846zM13.98145 55.5083c-1.6543 0-3 1.3457-3 3 0 1.6896 1.38359 3 3 3 1.6875 0 3-1.39563 3-3C16.98145 56.854 15.63574 55.5083 13.98145 55.5083zM14.72266 59.16748c-.37305.43359-1.1084.43555-1.50195-.01172-.15625-.17676-.23926-.40039-.23926-.64746 0-.56055.43945-1 1-1 .55176 0 1 .44824 1 1C14.98145 58.74463 14.89258 58.9751 14.72266 59.16748zM30.36719 8.88428c0-2.03027-1.66309-3.68164-3.70703-3.68164-2.03027 0-3.68164 1.65137-3.68164 3.68164 0 2.0293 1.65137 3.68066 3.68164 3.68066C28.7041 12.56494 30.36719 10.91358 30.36719 8.88428zM26.66016 10.56494c-.92773 0-1.68164-.75391-1.68164-1.68066 0-.92773.75391-1.68164 1.68164-1.68164.94141 0 1.70703.75391 1.70703 1.68164C28.36719 9.82666 27.61719 10.56494 26.66016 10.56494z" fill="#34a853" class="color000 svgShape"/></svg>