<svg xmlns="http://www.w3.org/2000/svg" enable-background="new 0 0 68 68" viewBox="0 0 68 68" class="d-none"><path d="M63.4 57.6c.8-3 2.9-12 2.7-15.4-.4-6.5-8.3-22-8.6-22.6-.9-2.1-3.4-3-5.4-2-1.8.9-2.6 3.1-1.8 5l4.5 10.4c-.1 0-.2 0-.3 0-2.5 0-4.5 2-4.5 4.5l0 5.8c-2.8 2.3-4.5 5.8-4.5 9.4l0 4.9c-.7.4-1.2 1.1-1.2 2v5.5c0 1.3 1 2.3 2.3 2.3H63c1.3 0 2.3-1 2.3-2.3v-5.5C65.2 58.7 64.4 57.8 63.4 57.6zM47.5 52.9c0-3.2 1.5-6.2 4.1-8.1.3-.2.4-.5.4-.8l0-6.3c0-1.4 1.2-2.5 2.5-2.5 1.6 0 2.3 1 2.5 2.5.1.7 0 .4 0 8.6 0 .5.4 1 1 1 .6 0 1-.5 1-1l0-8.6c0-1.3-.6-2.6-1.7-3.5l-5.2-12.3c-.4-.9 0-2 .9-2.5 1-.5 2.1-.1 2.6 1 .1.1 8 15.8 8.4 21.9.2 3.1-2 12.3-2.7 15l-13.9 0V52.9zM60.2 63.7c-.9 0-1.7-.8-1.7-1.7 0-.9.8-1.7 1.7-1.7.9 0 1.7.8 1.7 1.7C61.9 62.9 61.2 63.7 60.2 63.7zM22.5 57.4L22.5 57.4l0-4.9c0-3.6-1.7-7.1-4.5-9.4l0-5.8c0-2.8-2.6-4.8-4.8-4.5l4.4-10.5c.8-1.9 0-4.1-1.8-5-2-1-4.5-.1-5.3 1.9-.3.7-8.2 16.2-8.6 22.6-.2 3.4 1.9 12.4 2.7 15.4-1.1.2-1.9 1.1-1.9 2.2v5.5c0 1.3 1 2.3 2.3 2.3h16.4c1.3 0 2.3-1 2.3-2.3v-5.5C23.7 58.5 23.2 57.7 22.5 57.4zM3.9 41.9c.4-6 8.3-21.7 8.4-21.9.4-1 1.6-1.5 2.6-.9.9.4 1.3 1.5.9 2.4l-5.2 12.3c-1 .8-1.7 2.1-1.7 3.5l0 8.6c0 .5.4 1 1 1s1-.5 1-1c0-.1 0-8.3 0-8.4.2-1.9 1.3-2.6 2.5-2.6 1.4 0 2.5 1.1 2.5 2.5l0 6.3c0 .3.1.6.4.8 2.6 1.9 4.1 4.9 4.1 8.1l0 4.4-13.9 0C5.9 54.2 3.7 45 3.9 41.9zM7.8 63.3c-.9 0-1.7-.8-1.7-1.7 0-.9.8-1.7 1.7-1.7.9 0 1.7.8 1.7 1.7C9.4 62.5 8.7 63.3 7.8 63.3zM18.2 8.8c.4.4 1 .4 1.4 0 .4-.4.4-1 0-1.4l-2.8-2.8c-.4-.4-1-.4-1.4 0-.4.4-.4 1 0 1.4L18.2 8.8zM20.6 5.7c.1.5.7.9 1.2.7.5-.1.9-.7.7-1.2l-1-4c-.1-.5-.7-.9-1.2-.7-.5.1-.9.7-.7 1.2L20.6 5.7zM11.9 10.8l4 1c.5.1 1.1-.2 1.2-.7.1-.5-.2-1.1-.7-1.2l-4-1c-.5-.1-1.1.2-1.2.7C11 10.1 11.4 10.6 11.9 10.8zM49.5 8.8c.4.4 1 .4 1.4 0L53.6 6c.4-.4.4-1 0-1.4-.4-.4-1-.4-1.4 0l-2.8 2.8C49.1 7.7 49.1 8.4 49.5 8.8zM47.3 6.4c.5.1 1.1-.2 1.2-.7l1-4c.1-.5-.2-1.1-.7-1.2-.5-.1-1.1.2-1.2.7l-1 4C46.4 5.7 46.8 6.3 47.3 6.4zM52 11.1c.1.5.7.9 1.2.7l4-1c.5-.1.9-.7.7-1.2-.1-.5-.7-.9-1.2-.7l-4 1C52.2 10 51.8 10.5 52 11.1zM47.9 12c0-.9-.7-1.6-1.6-1.7-5.7-.5-8.9-2.8-10.5-4.3-.7-.7-1.8-.7-2.4 0-1.6 1.5-4.8 3.8-10.5 4.3-.9.1-1.6.8-1.6 1.7v10.2c0 4.2 1.6 8.3 4.8 11.1 2.2 2 4.9 3.4 8 4.5.4.1.8.1 1.1 0 3.1-1 5.8-2.5 8-4.5 3.1-2.8 4.7-6.9 4.7-11.1V12zM34.6 28.8c-3.9 0-7.1-3.2-7.1-7.1s3.2-7.1 7.1-7.1c3.9 0 7.1 3.2 7.1 7.1S38.5 28.8 34.6 28.8z" fill="#34a853" class="color000 svgShape"/><path d="M36.5,19.2c-0.1,0.1-2.9,2.9-2.8,2.8c-0.1-0.1-1.2-1.2-1.1-1.1c-0.4-0.4-1-0.4-1.4,0c-0.4,0.4-0.4,1,0,1.4l1.8,1.8c0.4,0.4,1,0.4,1.4,0l3.5-3.5c0.4-0.4,0.4-1,0-1.4C37.5,18.8,36.9,18.8,36.5,19.2z" fill="#34a853" class="color000 svgShape"/></svg>