<svg xmlns="http://www.w3.org/2000/svg" data-name="Layer 1" viewBox="0 0 512 512" class="d-none"><g data-name="&amp;lt;Group&amp;gt;" fill="#34a853" class="color000 svgShape"><path d="M261.662,278.175a7.661,7.661,0,0,0-2.74-.094,18.182,18.182,0,0,1-16.085-18.034,8,8,0,1,0-16,0A34.216,34.216,0,0,0,252,293v8a8,8,0,0,0,16,0v-7.515a34.163,34.163,0,0,0-7-67.6,18.163,18.163,0,1,1,18.163-18.163,8,8,0,0,0,16,0A34.22,34.22,0,0,0,268,174.282V167a8,8,0,0,0-16,0v7.77a34.16,34.16,0,0,0,9,67.114,18.151,18.151,0,0,1,.662,36.291Z" data-name="&amp;lt;Path&amp;gt;" fill="#34a853" class="color000 svgShape"/><path d="M144.992,234.5A116.008,116.008,0,1,0,261,118.492,116.139,116.139,0,0,0,144.992,234.5ZM261,134.492A100.008,100.008,0,1,1,160.992,234.5,100.121,100.121,0,0,1,261,134.492Z" data-name="&amp;lt;Compound Path&amp;gt;" fill="#34a853" class="color000 svgShape"/><path d="M416.446,370.229l-62.669,29.609a51.047,51.047,0,0,0-43.514-26.85L252.411,371.4a61.132,61.132,0,0,1-26.294-6.792l-5.886-3.048a103.832,103.832,0,0,0-96.175.1l.367-13.336a8,8,0,0,0-7.777-8.217L53.207,338.36a8,8,0,0,0-8.217,7.778L41.159,485.35a8,8,0,0,0,7.778,8.216l63.438,1.746.224,0a8,8,0,0,0,7.993-7.78l.183-6.661,16.48-8.824a28.288,28.288,0,0,1,21.1-2.31l98.411,27.624c.172.049.345.091.52.128a105.459,105.459,0,0,0,21.629,2.231,106.743,106.743,0,0,0,44.591-9.729,7.922,7.922,0,0,0,.993-.548l142.689-92.3a8,8,0,0,0,2.621-10.653A40.41,40.41,0,0,0,416.446,370.229ZM57.373,477.792l3.392-123.218,47.444,1.307L104.817,479.1ZM316.3,475.7a90.717,90.717,0,0,1-55.471,6.19l-98.147-27.55a44.223,44.223,0,0,0-32.977,3.608l-8.42,4.509,2.255-81.927a87.931,87.931,0,0,1,89.335-4.762l5.886,3.049a77.265,77.265,0,0,0,33.214,8.579l57.85,1.591a35.092,35.092,0,0,1,33.351,27.957L257,414.567c-.075,0-.149,0-.224,0a8,8,0,0,0-.215,16l95.1,2.617.224,0a8,8,0,0,0,7.993-7.78,51.1,51.1,0,0,0-.772-10.381l64.275-30.368.188-.091a24.428,24.428,0,0,1,27.64,3.871Z" data-name="&amp;lt;Compound Path&amp;gt;" fill="#34a853" class="color000 svgShape"/><path d="M269 96V20a8 8 0 0 0-16 0V96a8 8 0 0 0 16 0zM329 96V60a8 8 0 0 0-16 0V96a8 8 0 0 0 16 0zM209 96V60a8 8 0 0 0-16 0V96a8 8 0 0 0 16 0z" data-name="&amp;lt;Path&amp;gt;" fill="#34a853" class="color000 svgShape"/></g></svg>