<svg xmlns="http://www.w3.org/2000/svg" viewBox="0 0 854 294.428"><defs><style>.cls-2,.cls-35{fill:#232323}.cls-12,.cls-14,.cls-3,.cls-32{fill:#eabe50}.cls-14,.cls-32,.cls-37{mix-blend-mode:multiply}.cls-10{fill:#656972}.cls-11{fill:#82817f}.cls-12{opacity:.75}.cls-12,.cls-34,.cls-35{mix-blend-mode:screen}.cls-17,.cls-18,.cls-26,.cls-27,.cls-38,.cls-39{fill:none;stroke:#000;stroke-linecap:round;stroke-linejoin:round}.cls-14{opacity:.61}.cls-16{fill:#393943}.cls-17{stroke-width:2px}.cls-19{fill:#897474}.cls-22{fill:#4c4c54}.cls-23{fill:#3a3a3a}.cls-25{fill:#c4c4c4}.cls-26{stroke-width:5.13672px}.cls-27{stroke-width:4.15047px}.cls-39{stroke-width:4px}.cls-32{opacity:.44}.cls-34{fill:#f9d480;opacity:.66}.cls-37{fill:#e7e7eb}.cls-38{stroke-width:5px}.cls-45{fill:#383842}</style></defs><g style="isolation:isolate"><ellipse cx="427" cy="243.554" rx="427" ry="8" id="Layer_3" data-name="Layer 3"/><g id="Layer_2" data-name="Layer 2"><path class="cls-2" d="m109.529 208.109 169.28 3.5-9.28-87.5-32-20-46-16-55 9-27 20-8.5 37.75 2.5 37.25 6 16zM621.529 208.109l169.28 3.5-9.28-87.5-32-20-46-16-55 9-27 20-8.5 37.75 2.5 37.25 6 16z"/><path class="cls-3" d="m842.95 158.879-1.79-16.13-.08-.69a.702.702 0 0 0-.48-.59l-8.23-2.75a.575.575 0 0 1-.39-.47l-.56-3.69-4.32-28.51a.528.528 0 0 1 .35-.58l1.83-.61a1.096 1.096 0 0 0 .75-1.04v-3.87a1.132 1.132 0 0 0-.19-.62l-10.43-15.17a1.456 1.456 0 0 1-.2-1.2l1.59-5.54a1.823 1.823 0 0 0-.22-1.49c0-.01-.01-.01-.01-.02l-2.83-4.24a1.824 1.824 0 0 0-1.95-.75l-4.86 1.21h-.01l-4.51 1.13a6.687 6.687 0 0 1-2.78.11c-2.29-.4-7.2-1.26-13.26-2.35-11.63-2.11-27.5-5.1-37.34-7.41-17-4-195-64-324-61 0 0-54.31 1.87-92.25 12.87-.55.16-1.1.32-1.64.5a44.527 44.527 0 0 1 9.01 4.94.67.67 0 0 1-.13 1.15q-4.396 1.995-8.72 4.1a1.423 1.423 0 0 1-.18.08c-5.62 2.55-9.03 4.45-9.76 4.87a1.036 1.036 0 0 1-.12.07c-.01 0-.02.01-.03.01v.01a597.883 597.883 0 0 0-73.79 45.63 9.003 9.003 0 0 1-5.41 1.74l-32.81-1.2a3.337 3.337 0 0 1-1.25.23h-10.52a100.338 100.338 0 0 0-15.29 1.16c-27.2 4.16-117.35 19.4-153.79 43.5a41.597 41.597 0 0 0-7.06 5.84 21.826 21.826 0 0 0-2.39 2.86 7.91 7.91 0 0 0-.75 1.32c-.04.11-.09.22-.12.32l-3.68 11.04a35.046 35.046 0 0 0-1.55 6.87c-.05.41-.09.82-.13 1.24l-1.05 12.04-2.48 28.57a3.419 3.419 0 0 1-.99 2.12l-3.05 3.05a.26.26 0 0 0-.07.17v1.65a.248.248 0 0 0 .25.25H25.8a27.207 27.207 0 0 1 19.17 7.94l3.43 3.43a3.877 3.877 0 0 0 2.73 1.13h58.59a1.35 1.35 0 0 0 1.35-1.31l.97-33.71a71.52 71.52 0 0 1 114.37-55.2 71.474 71.474 0 0 1 28.62 55.19l.96 33.23a1.332 1.332 0 0 0 1.34 1.3h364.3a1.415 1.415 0 0 0 1.42-1.4l.66-36.61a75.332 75.332 0 0 1 150.64 0l.65 33.67a1.17 1.17 0 0 0 1.35 1.13l44.64-7.05a17.316 17.316 0 0 0 14-12.52l5.14-18.65 1.61-5.84.56-2.05.54-1.97a4.115 4.115 0 0 0 .11-1.44Zm-230.81-92.64a3.868 3.868 0 0 1-.84.12l-120.02 3.58-3.42.1-211.05 6.3-2.9.09-5.88.18s21.5-15.5 55.5-34.5c44-26 89-25 89-25q4.604-.045 9.2 0c.71 0 1.43.01 2.14.02 1.17.01 2.33.04 3.5.06.21.01.42.01.63.01q2.534.06 5.07.15h.12c1.56.05 3.11.11 4.66.18q3.09.135 6.15.3c1.55.09 3.1.18 4.64.28a1.147 1.147 0 0 1 .19.01q2.43.15 4.86.33c1.16.09 2.3.17 3.44.27q1.514.105 3 .24l3.79.33c1.68.15 3.35.31 5.02.48 1.39.14 2.77.28 4.15.43 5.98.63 11.85 1.35 17.59 2.12.99.14 1.98.27 2.96.41q6.134.855 12.03 1.8c.74.11 1.47.23 2.2.35 2.92.46 5.8.95 8.61 1.44 1.41.24 2.81.49 4.19.74.03 0 .05.01.07.01 1.35.25 2.69.49 4.01.73q4.304.81 8.42 1.62c31.54 6.25 53.95 12.83 59.2 14.35a45.832 45.832 0 0 1 9.92 4.52 10.099 10.099 0 0 1 2.03 1.66l9.57 10.16a3.713 3.713 0 0 1-1.75 6.13Z"/><path style="mix-blend-mode:multiply;opacity:.1;fill:#eabe50" d="m501.92 132.981-238.391 7.128 3 58 218-7 17.391-58.128z"/><path d="m829.54 98.899-35.46 5.4a84.693 84.693 0 0 0-7.95-12.32 2.217 2.217 0 0 1 1.2-3.54c6.53-1.59 19.12-2.4 24.79-2.69a10.593 10.593 0 0 1 5.44 1.18l5.85 3.05Z" style="fill:#ba1924"/><path d="M91.83 120.199c-3.06 3.21-7.35 9.16-11.35 18.73-.22.52-.44 1.05-.66 1.6-.08.2-.16.41-.24.62-.48.06-.98.12-1.52.19l-.27.03h-.01c-9.56 1.14-27.59 3.26-35.87 3.99-1.84.16-3.2.25-3.88.25-3.97 0-4.79-8.82-4.95-12.46-.02-.23-.02-.44-.03-.63a1.383 1.383 0 0 1 .67-1.24c.04-.02.09-.04.13-.06.34-.16.71-.32 1.12-.49 5.44-2.32 16.14-5.89 25.18-8.8a.435.435 0 0 1 .05-.01c8.83-1.82 18.83-3.53 29.98-4.96a1.93 1.93 0 0 1 1.65 3.24Z" style="fill:#32323a"/><path d="M92 119.979q-11.295 1.695-20.8 3.68a.435.435 0 0 0-.05.01c-9.04 2.91-19.74 6.48-25.18 8.8-.41.17-.78.33-1.12.49-.04.02-.09.04-.13.06a1.383 1.383 0 0 0-.67 1.24c.01.19.01.4.03.63.11 2.43.51 7.19 1.95 10.07-1.54.16-2.93.29-4.12.4-1.84.16-3.2.25-3.88.25-3.97 0-4.79-8.82-4.95-12.46-.02-.23-.02-.44-.03-.63a1.383 1.383 0 0 1 .67-1.24c.04-.02.09-.04.13-.06.34-.16.71-.32 1.12-.49 5.44-2.32 16.14-5.89 25.18-8.8a.435.435 0 0 1 .05-.01c8.83-1.82 18.83-3.53 29.98-4.96a1.923 1.923 0 0 1 1.82 3.02Z" style="opacity:.23;fill:#32323a;mix-blend-mode:multiply"/><path d="M80.48 138.929c-.22.52-.44 1.05-.66 1.6-.08.2-.16.41-.24.62-.48.06-.98.12-1.52.19l-.27.03h-.01c-9.56 1.14-27.59 3.26-35.87 3.99-1.84.16-3.2.25-3.88.25-3.97 0-4.79-8.82-4.95-12.46-.02-.23-.02-.44-.03-.63a1.383 1.383 0 0 1 .67-1.24 71.135 71.135 0 0 0 3.6 9.49 3.171 3.171 0 0 0 3.09 1.72Z" style="fill:#71717b"/><path d="M90.18 116.959c-11.15 1.43-21.15 3.14-29.98 4.96a.435.435 0 0 0-.05.01c-9.04 2.91-19.74 6.48-25.18 8.8a26.09 26.09 0 0 0-1.137.498 1.364 1.364 0 0 0-.783 1.31c.01.185.01.389.03.612l34.462-7.132a1.823 1.823 0 0 1 2.184 1.95l-.697 7.642 3.608-9.367a2.717 2.717 0 0 1 1.984-1.684l6.294-1.304a1.831 1.831 0 0 1 2.11 2.372l-5.246 15.743c.64-.08 1.24-.15 1.8-.22 4.25-10.88 8.96-17.5 12.25-20.95a1.93 1.93 0 0 0-1.65-3.24Z" style="fill:#e5e5e5"/><path class="cls-10" d="M344.02 22.069q-4.396 1.995-8.72 4.1a1.423 1.423 0 0 1-.18.08c-5.62 2.55-9.03 4.45-9.76 4.87a1.036 1.036 0 0 1-.12.07c-.01 0-.02.01-.03.01v.01a597.883 597.883 0 0 0-73.79 45.63 9.003 9.003 0 0 1-5.41 1.74l-32.81-1.2a2.916 2.916 0 0 0 .73-.36c37.2-24.4 85.09-45.98 107.08-55.39 1.01-.43 1.97-.84 2.87-1.22.5-.22.98-.42 1.44-.61.82-.35 1.57-.67 2.27-.96.26-.1.5-.2.74-.3.53-.23 1.02-.43 1.46-.61.56-.23 1.13-.46 1.69-.67.64-.25 1.28-.48 1.92-.7.45-.16.9-.31 1.36-.45.12-.05.25-.09.38-.13a44.527 44.527 0 0 1 9.01 4.94.67.67 0 0 1-.13 1.15Z"/><path class="cls-11" d="M344.02 22.069c-.38.17-.77.35-1.15.53-.45-.2-.92-.41-1.41-.62-.13.04-.26.08-.38.13-.46.14-.91.29-1.36.45-.64.22-1.28.45-1.92.7-.56.21-1.13.44-1.69.67-.44.18-.93.38-1.46.61-.24.1-.48.2-.74.3-.7.29-1.45.61-2.27.96-.46.19-.94.39-1.44.61-.9.38-1.86.79-2.87 1.22-20.45 8.75-63.29 28.02-99.1 50.3l-15.03-.55a2.916 2.916 0 0 0 .73-.36c37.2-24.4 85.09-45.98 107.08-55.39 1.01-.43 1.97-.84 2.87-1.22.5-.22.98-.42 1.44-.61.82-.35 1.57-.67 2.27-.96.26-.1.5-.2.74-.3.53-.23 1.02-.43 1.46-.61.56-.23 1.13-.46 1.69-.67.64-.25 1.28-.48 1.92-.7.45-.16.9-.31 1.36-.45.12-.05.25-.09.38-.13a44.527 44.527 0 0 1 9.01 4.94.67.67 0 0 1-.13 1.15Z"/><path class="cls-12" d="m42.03 145.609-25.23 4.91a35.046 35.046 0 0 1 1.55-6.87l3.68-11.04c.03-.1.08-.21.12-.32l11.73-3.86 1.09 2.3c-.41.17-.78.33-1.12.49a1.361 1.361 0 0 0-.8 1.3c.1 3.11.76 13.09 4.98 13.09.68 0 2.04-.09 3.88-.25Z"/><path class="cls-2" d="m820.579 105.999 3.45 33.61 8-1-5-33-5.86.39h-.59z"/><path d="M832.82 138.869c-6.01 1.17-14.65 2.74-17.79 2.74a7.15 7.15 0 0 1-5.54-2.69 9.447 9.447 0 0 0 4.54.69l10.598-1.767a1.44 1.44 0 0 0 1.186-1.638L821.17 106l7.24-.85-.96.32a.528.528 0 0 0-.35.58l4.88 32.2a.575.575 0 0 0 .39.47Z" style="stroke-width:.75px;stroke-linecap:round;stroke-linejoin:round;stroke:#000;fill:none"/><path class="cls-14" d="m840.13 170.179-4.78 17.35-.36 1.3a17.316 17.316 0 0 1-14 12.52l-24.13 3.81-20.51 3.24a1.17 1.17 0 0 1-1.35-1.13l-.65-33.67a75.332 75.332 0 0 0-150.64 0l-.66 36.61a1.415 1.415 0 0 1-1.42 1.4h-364.3a1.332 1.332 0 0 1-1.34-1.3l-.96-33.23a71.525 71.525 0 0 0-142.99.01l-.97 33.71a1.35 1.35 0 0 1-1.35 1.31H51.13a3.877 3.877 0 0 1-2.73-1.13l-3.43-3.43a27.207 27.207 0 0 0-19.17-7.94H9.28a.248.248 0 0 1-.25-.25v-1.65a.26.26 0 0 1 .07-.17l3.05-3.05a3.419 3.419 0 0 0 .99-2.12l2.48-28.57 68.16-4.06a41.881 41.881 0 0 0 33.3-20.49A77.496 77.496 0 0 1 230 117.079a75.126 75.126 0 0 1 7.56 6.46 77.1 77.1 0 0 1 23.47 53.37 16.696 16.696 0 0 0 16.7 16.7H596.9a20.82 20.82 0 0 0 20.81-20.12 81.33 81.33 0 0 1 138.31-56.57 80.24 80.24 0 0 1 23.39 47.76 9.5 9.5 0 0 0 9.93 8.4Z"/><path class="cls-11" d="M612.14 66.239a3.868 3.868 0 0 1-.84.12l-109.84 3.28-10.18.3-3.42.1-9.54.28-201.51 6.02-2.9.09-5.88.18s21.5-15.5 55.5-34.5c44-26 89-25 89-25q4.605-.045 9.2 0c.71 0 1.43.01 2.14.02 1.17.01 2.33.04 3.5.06.21.01.42.01.63.01q2.534.06 5.07.15h.12c1.56.05 3.11.11 4.66.18q3.09.135 6.15.3c1.55.09 3.1.18 4.64.28a1.147 1.147 0 0 1 .19.01q2.43.15 4.86.33c1.16.09 2.3.17 3.44.27q1.514.105 3 .24l3.79.33c1.68.15 3.35.31 5.02.48 1.39.14 2.77.28 4.15.43 5.98.63 11.85 1.35 17.59 2.12.99.14 1.98.27 2.96.41q6.134.855 12.03 1.8c.74.11 1.47.23 2.2.35 2.92.46 5.8.95 8.61 1.44 1.41.24 2.81.49 4.19.74.03 0 .05.01.07.01 1.35.25 2.69.49 4.01.73q4.304.81 8.42 1.62c31.54 6.25 53.95 12.83 59.2 14.35a45.832 45.832 0 0 1 9.92 4.52 10.099 10.099 0 0 1 2.03 1.66l9.57 10.16a3.713 3.713 0 0 1-1.75 6.13Z"/><path class="cls-10" d="M612.14 66.239a1.804 1.804 0 0 1-.32.06l-1.5-1.59a10.095 10.095 0 0 0-2.03-1.66 45.832 45.832 0 0 0-9.92-4.52c-5.25-1.52-27.66-8.1-59.2-14.35q-4.11-.81-8.42-1.62c-1.32-.24-2.66-.48-4.01-.73-.02 0-.04-.01-.07-.01-1.38-.25-2.78-.5-4.19-.74-2.81-.49-5.69-.98-8.61-1.44-.73-.12-1.46-.24-2.2-.35q-5.895-.945-12.03-1.8c-.98-.14-1.97-.27-2.96-.41-5.74-.77-11.61-1.49-17.59-2.12-1.38-.15-2.76-.29-4.15-.43-1.67-.17-3.34-.33-5.02-.48l-3.79-.33q-1.485-.135-3-.24c-1.14-.1-2.28-.18-3.44-.27q-2.43-.18-4.86-.33a1.155 1.155 0 0 0-.19-.01c-1.54-.1-3.09-.19-4.64-.28q-3.06-.165-6.15-.3c-1.55-.07-3.1-.13-4.66-.18h-.12q-2.535-.09-5.07-.15c-.21 0-.42 0-.63-.01-1.17-.02-2.33-.05-3.5-.06-.71-.01-1.43-.02-2.14-.02q-4.59-.045-9.2 0s-45-1-89 25a717.108 717.108 0 0 0-31.83 18.85l-20.89.62-2.9.09-5.88.18s21.5-15.5 55.5-34.5c44-26 89-25 89-25q4.605-.045 9.2 0c.71 0 1.43.01 2.14.02 1.17.01 2.33.04 3.5.06.21.01.42.01.63.01q2.535.06 5.07.15h.12c1.56.05 3.11.11 4.66.18q3.09.135 6.15.3c1.55.09 3.1.18 4.64.28a1.147 1.147 0 0 1 .19.01q2.43.15 4.86.33c1.16.09 2.3.17 3.44.27q1.515.105 3 .24l3.79.33c1.68.15 3.35.31 5.02.48 1.39.14 2.77.28 4.15.43 5.98.63 11.85 1.35 17.59 2.12.99.14 1.98.27 2.96.41q6.135.855 12.03 1.8c.74.11 1.47.23 2.2.35 2.92.46 5.8.95 8.61 1.44 1.41.24 2.81.49 4.19.74.03 0 .05.01.07.01 1.35.25 2.69.49 4.01.73q4.305.81 8.42 1.62c31.54 6.25 53.95 12.83 59.2 14.35a45.832 45.832 0 0 1 9.92 4.52 10.099 10.099 0 0 1 2.03 1.66l9.57 10.16a3.713 3.713 0 0 1-1.75 6.13Z"/><path class="cls-2" d="m533.17 29.419-1.64 5.69c-32.65-6.48-72.63-13.03-114.19-13.03-1.59 0-3.18.01-4.87.03h-.61c-4.63 0-46.36.69-86.87 24.62-19.68 11-35.24 20.88-44.76 27.19-.18.12-1.58 1.11-3.42 2.42l-2.9.09-5.88.18s21.5-15.5 55.5-34.5c44-26 89-25 89-25q4.605-.045 9.2 0c.71 0 1.43.01 2.14.02 1.17.01 2.33.04 3.5.06.21.01.42.01.63.01q2.534.06 5.07.15h.12c1.56.05 3.11.11 4.66.18q3.09.135 6.15.3c1.55.09 3.1.18 4.64.28a1.147 1.147 0 0 1 .19.01q2.43.15 4.86.33c1.16.09 2.3.17 3.44.27q1.514.105 3 .24l3.79.33c1.68.15 3.35.31 5.02.48 1.39.14 2.77.28 4.15.43 5.98.63 11.85 1.35 17.59 2.12.99.14 1.98.27 2.96.41q6.134.855 12.03 1.8c.74.11 1.47.23 2.2.35 2.92.46 5.8.95 8.61 1.44 1.41.24 2.81.49 4.19.74.03 0 .05.01.07.01 1.35.24 2.69.49 4.01.73q4.305.81 8.42 1.62Z"/><path d="m611.3 66.359-90.09 2.69 11.96-39.63c31.53 6.25 53.95 12.83 59.2 14.35a45.832 45.832 0 0 1 9.92 4.52 10.099 10.099 0 0 1 2.03 1.66l9.57 10.16a3.712 3.712 0 0 1-2.59 6.25Z" style="fill:#373741"/><path class="cls-16" d="M79.58 141.149c-4.22 10.85-7.99 25.94-9.43 46.38a4.65 4.65 0 0 1-.5 1.81l-7.83 1.07-8.6 1.17c-.13.02-.25.03-.38.04l-18.66.89a2.15 2.15 0 0 1-2.24-1.9 1.958 1.958 0 0 1-.02-.25c-.08-10.45 4.15-36.88 4.97-41.91a2.687 2.687 0 0 1 .73-1.44l1.41-1.44c6.27-.35 30.47-3.21 40.55-4.42ZM607.03 107.509l-25.73 45.82a40.404 40.404 0 0 1-31.12 20.41l-62.48 6.39 25.75-85.37 88.38 3.45a6.245 6.245 0 0 1 5.2 9.3Z"/><path class="cls-17" d="m650.479 117.339-49.53 1"/><path class="cls-16" d="m824.63 137.839-5.14.86-3.59.6-1.87.31a9.447 9.447 0 0 1-4.54-.69h-.01a9.554 9.554 0 0 1-1.45-2.31 236.032 236.032 0 0 0-11.55-27.73l6.58-.77 6.17-.72 11.94-1.39 4.64 30.21a1.43 1.43 0 0 1-1.18 1.63Z"/><path class="cls-10" d="m500.53 70.109-9.25-.17-3.42.1-5.33.07c-6-5-13.07-24.45-6-38l26 4s4.23 20.68-2 34Z"/><path class="cls-18" d="m815.9 139.299-1.87.31a9.447 9.447 0 0 1-4.54-.69h-.01a9.554 9.554 0 0 1-1.45-2.31 236.032 236.032 0 0 0-11.55-27.73l6.58-.77 12.97 26.5Z"/><path class="cls-2" d="m815.9 139.299-1.87.31a9.447 9.447 0 0 1-4.54-.69h-.01a9.554 9.554 0 0 1-1.45-2.31 236.032 236.032 0 0 0-11.55-27.73l6.58-.77 12.97 26.5Z"/><path class="cls-19" d="M830.03 99.949v3.87a1.096 1.096 0 0 1-.75 1.04l-.87.29-31.93 3.73q-1.246-2.475-2.4-4.58l35.46-5.4h.01l.29.43a1.132 1.132 0 0 1 .19.62Z"/><path class="cls-19" d="M830.03 100.879v2.94a1.096 1.096 0 0 1-.75 1.04l-.87.29-25.67 3c-.75-1.25-1.46-2.4-2.16-3.47Z"/><path d="M830.03 100.879v2.94a1.097 1.097 0 0 1-.75 1.04l-.87.29-25.67 3-.168-.278a2.437 2.437 0 0 1 1.776-3.678Z" style="opacity:.39;fill:#897474;mix-blend-mode:multiply"/><path class="cls-16" d="m841.25 166.109-5.65 20.51-18.87 1.53a2.86 2.86 0 0 1-2.64-4.38l7.6-12.03a5.8 5.8 0 0 1 3.81-2.61Z"/><path class="cls-2" d="M825.071 173.875a1.82 1.82 0 0 1 1.2-.822l8.263-1.584a.728.728 0 0 1 .84.909l-2.681 9.73a1.11 1.11 0 0 1-.98.813l-11.171.906a.928.928 0 0 1-.86-1.42ZM501.22 23.839l-9.94 46.1-3.42.1 10.07-46.7c1.11.17 2.2.33 3.29.5Z"/><ellipse cx="568.046" cy="52.11" rx="9.014" ry="14.517" transform="rotate(-86.682 568.046 52.11)" style="opacity:.33;fill:#393943;mix-blend-mode:screen"/><path class="cls-2" d="m72.03 144.609-8.009.728a3.786 3.786 0 0 0-3.407 3.247l-5.217 37.394a2.312 2.312 0 0 0 2.289 2.63h9.343l-2.376-3.168a2.522 2.522 0 0 1-.48-1.86l4.743-34.155a3.19 3.19 0 0 1 .608-1.475Z"/><path class="cls-2" d="m72.03 145.109-8.009.728a3.786 3.786 0 0 0-3.407 3.247l-5.217 37.394a2.312 2.312 0 0 0 2.289 2.63h9.343l-2.376-3.168a2.522 2.522 0 0 1-.48-1.86l4.743-34.155a3.19 3.19 0 0 1 .608-1.475ZM55.03 146.609l-8.009.728a3.786 3.786 0 0 0-3.407 3.247l-5.217 35.394a2.312 2.312 0 0 0 2.289 2.63h9.343l-2.376-3.168a2.522 2.522 0 0 1-.48-1.86l4.743-32.155a3.19 3.19 0 0 1 .608-1.475ZM822.03 133.609l-2.54 5.09-3.59.6.13-4.69-12.97-26.5 6.17-.72s10.8 19.22 12.8 26.22Z"/><circle class="cls-22" cx="183.529" cy="177.109" r="62.5"/><circle class="cls-2" cx="183.529" cy="177.109" r="50"/><circle class="cls-23" cx="183.529" cy="177.109" r="38.5"/><path d="M157.66 222.483a2.098 2.098 0 0 1-1.667-3.371c1.772-2.318 4.115-5.358 6.533-8.324l.793-.983c1.911-2.369 3.887-4.818 5.875-7.194l4.645-5.54c.078-.095.155-.2.231-.309a5.584 5.584 0 0 0 .71-1.414 647.525 647.525 0 0 1 2.518-7.417 12.522 12.522 0 0 1-1.497-1.015c-.803.635-1.606 1.268-2.421 1.887l-3.992 3.081a5.582 5.582 0 0 0-1.015 1.135l-1.398 2.148-2.838 4.328a483.82 483.82 0 0 1-4.559 6.789l-1.226 1.806c-2.004 2.978-4.043 5.85-5.947 8.508a2.173 2.173 0 0 1-3.695-2.266c1.425-2.75 3.12-5.989 4.884-9.164l1.023-1.857a478.9 478.9 0 0 1 4.01-7.195l2.565-4.489 1.298-2.25a11.915 11.915 0 0 1 2.28-2.808l4.086-3.42q.799-.673 1.612-1.333a701.2 701.2 0 0 1-7.21-.33 11.91 11.91 0 0 1-3.605-.735 12.033 12.033 0 0 1-.849-.351l-1.806-.855-4.756-2.268c-2.797-1.335-5.615-2.741-8.34-4.1l-1.13-.564c-3.398-1.675-6.658-3.388-9.4-4.844a2.141 2.141 0 0 1 1.722-3.908c2.724.966 6.314 2.255 9.924 3.659l1.295.497a531.362 531.362 0 0 1 8.537 3.331l4.884 1.972 1.818.74c.113.045.24.087.368.126a5.609 5.609 0 0 0 1.561.24c2.6.02 5.216.053 7.828.104a12.427 12.427 0 0 1 .5-1.748c-.849-.565-1.697-1.132-2.537-1.713l-4.164-2.844a5.57 5.57 0 0 0-1.394-.614l-2.475-.666-4.991-1.362a490.179 490.179 0 0 1-7.826-2.226l-2.137-.62c-3.48-.993-6.973-2.088-9.93-3.028a2.172 2.172 0 0 1 .657-4.242 2.21 2.21 0 0 1 .357.03c3.057.505 6.664 1.116 10.223 1.812l2.177.417c2.62.5 5.33 1.018 7.989 1.572l5.061 1.053 2.54.54a11.86 11.86 0 0 1 3.378 1.302l4.512 2.828c.595.37 1.187.748 1.777 1.129a725.006 725.006 0 0 1-1.922-6.968 11.956 11.956 0 0 1-.419-3.653c.013-.307.035-.613.071-.917l.25-1.982.679-5.225c.4-3.069.855-6.179 1.296-9.188l.185-1.262c.54-3.806 1.172-7.578 1.66-10.438a2.22 2.22 0 0 1 2.193-1.85 2.161 2.161 0 0 1 .378.032 2.234 2.234 0 0 1 1.849 2.264c-.091 2.908-.225 6.739-.453 10.564l-.07 1.273a578.66 578.66 0 0 1-.561 9.256l-.377 5.253-.145 1.957c-.008.123-.009.256-.007.387a5.533 5.533 0 0 0 .252 1.56q1.172 3.719 2.313 7.473a11.703 11.703 0 0 1 1.331-.077c.16 0 .322.003.486.01.276-.98.555-1.961.848-2.938l1.422-4.839a5.537 5.537 0 0 0 .154-1.514l-.131-2.56-.248-5.168c-.132-2.73-.219-5.505-.303-8.188l-.069-2.166c-.13-3.603-.168-7.269-.189-10.38a2.172 2.172 0 0 1 2.159-2.186 2.189 2.189 0 0 1 2.161 1.847c.465 3.067.998 6.688 1.436 10.284l.269 2.14c.336 2.666.684 5.423.98 8.143l.563 5.14.273 2.582a11.945 11.945 0 0 1-.194 3.613l-1.292 5.17c-.165.668-.338 1.336-.513 2.004q2.989-1.994 6.017-3.954a11.852 11.852 0 0 1 3.35-1.519c.297-.082.595-.155.897-.213l1.961-.365 5.187-.941c3.032-.55 6.124-1.048 9.112-1.53l1.303-.211c2.034-.338 3.7-.595 5.236-.806l.763-.111c1.49-.217 2.982-.434 4.48-.618a1.872 1.872 0 0 1 .244-.015 1.984 1.984 0 0 1 .595 3.877c-1.393.44-2.793.847-4.193 1.256l-.886.258c-1.463.438-3.085.895-5.097 1.437l-1.27.348c-2.92.8-5.938 1.627-8.925 2.386l-5.106 1.293-1.905.476a5.581 5.581 0 0 0-.367.115 5.645 5.645 0 0 0-1.406.73 560.05 560.05 0 0 1-6.385 4.521 12.392 12.392 0 0 1 .613 1.695c1.019-.04 2.037-.08 3.055-.101l5.041-.144a5.498 5.498 0 0 0 1.488-.322l2.394-.915 4.839-1.833a485.263 485.263 0 0 1 7.685-2.815l2.048-.738c3.393-1.24 6.865-2.408 9.813-3.387a2.172 2.172 0 0 1 1.656 4.003c-2.927 1.467-6.085 3.033-9.337 4.543l-1.93.907c-2.438 1.147-4.96 2.334-7.463 3.46l-4.714 2.124-2.371 1.056a11.92 11.92 0 0 1-3.496.933l-5.315.367q-1.033.075-2.07.132 2.821 2.228 5.624 4.501a11.854 11.854 0 0 1 2.48 2.717c.168.254.33.515.479.785l.955 1.754 2.5 4.64c1.46 2.71 2.89 5.49 4.274 8.18l.608 1.182a197.349 197.349 0 0 1 2.39 4.727l.375.758a206.826 206.826 0 0 1 1.943 4.001 2.01 2.01 0 0 1-1.819 2.862 2.014 2.014 0 0 1-1.639-.845c-.848-1.193-1.669-2.4-2.49-3.61l-.513-.755a195.921 195.921 0 0 1-2.937-4.407l-.699-1.064c-1.669-2.543-3.394-5.172-5.044-7.791l-3.846-6.123a5.414 5.414 0 0 0-.222-.314 5.662 5.662 0 0 0-1.13-1.112 581.457 581.457 0 0 1-6.277-4.683 12.447 12.447 0 0 1-1.423 1.109c.355.958.708 1.916 1.045 2.88l1.696 4.75a5.588 5.588 0 0 0 .766 1.317l1.61 1.992 3.238 4.036c1.72 2.142 3.431 4.348 5.085 6.48l1.303 1.68c2.223 2.837 4.409 5.78 6.254 8.285a2.172 2.172 0 0 1-3.296 2.812c-2.178-2.207-4.738-4.822-7.206-7.474l-1.466-1.563a486.528 486.528 0 0 1-5.59-6.022l-3.476-3.828-1.737-1.93a11.898 11.898 0 0 1-1.968-3.035l-1.99-4.943q-.392-.964-.769-1.938-1.248 3.376-2.542 6.75a11.865 11.865 0 0 1-1.814 3.199c-.189.24-.387.474-.596.698l-1.372 1.453-3.632 3.82c-2.113 2.22-4.3 4.438-6.414 6.583l-.959.972c-2.684 2.748-5.433 5.414-7.528 7.43a2.088 2.088 0 0 1-1.454.585Z" style="stroke-miterlimit:10;stroke:#0f0f0e"/><path class="cls-25" d="M183.53 126.609a50.5 50.5 0 1 0 50.5 50.5 50.5 50.5 0 0 0-50.5-50.5Zm0 95.5a45 45 0 1 1 45-45 44.998 44.998 0 0 1-45 45Z"/><path class="cls-25" d="M233.719 165.148a1.172 1.172 0 0 0-1.482-.743c-3.278 1.09-6.55 2.196-9.789 3.38-3.244 1.171-6.495 2.325-9.718 3.548l-4.836 1.83-2.407.922a6.61 6.61 0 0 1-1.803.382l-5.048.143c-1.285.028-2.569.082-3.852.134a11.417 11.417 0 0 0-1.114-3.058 554.672 554.672 0 0 0 7.076-5 6.68 6.68 0 0 1 1.663-.865c.148-.051.299-.1.452-.14l.624-.157 1.278-.319 5.106-1.293c3.404-.863 6.791-1.802 10.181-2.73 1.696-.457 3.39-.927 5.076-1.431 1.689-.494 3.38-.978 5.06-1.508a.984.984 0 0 0-.416-1.915c-1.75.214-3.488.475-5.23.726-1.743.24-3.479.515-5.212.803-3.47.561-6.941 1.112-10.396 1.738l-5.183.941-1.295.24-.661.123c-.276.054-.55.12-.82.195a10.902 10.902 0 0 0-3.07 1.394 552.334 552.334 0 0 0-7.146 4.708c-.24-.19-.48-.38-.722-.568.29-1.09.579-2.179.849-3.274l1.284-5.13a10.944 10.944 0 0 0 .177-3.303l-.272-2.578-.563-5.14c-.373-3.427-.82-6.848-1.248-10.27-.416-3.424-.914-6.841-1.431-10.256a1.172 1.172 0 0 0-2.332.183c.023 3.454.065 6.907.189 10.353.112 3.448.205 6.897.371 10.34l.247 5.164.133 2.574a6.603 6.603 0 0 1-.194 1.834l-1.424 4.844c-.37 1.232-.717 2.47-1.065 3.707a11.072 11.072 0 0 0-3.266.124 704.581 704.581 0 0 0-2.558-8.285 6.577 6.577 0 0 1-.299-1.85c-.002-.157 0-.315.01-.472l.047-.642.098-1.313.376-5.253c.25-3.502.436-7.01.63-10.518.21-3.506.342-7.02.452-10.536a1.226 1.226 0 0 0-2.433-.245c-.594 3.467-1.164 6.937-1.658 10.414-.508 3.476-1.026 6.952-1.479 10.433l-.678 5.223-.165 1.306-.084.668c-.033.279-.053.56-.065.84a10.988 10.988 0 0 0 .386 3.35c.749 2.769 1.507 5.514 2.286 8.258l-.78.52a172.101 172.101 0 0 0-2.858-1.83l-4.48-2.81a10.907 10.907 0 0 0-3.086-1.19l-2.536-.538-5.063-1.053c-3.374-.704-6.766-1.336-10.153-1.986-3.385-.663-6.788-1.245-10.196-1.808a1.172 1.172 0 0 0-.546 2.274c3.292 1.045 6.589 2.073 9.905 3.02 3.313.958 6.622 1.936 9.948 2.841l4.988 1.361 2.489.67a6.647 6.647 0 0 1 1.684.75l4.17 2.847c1.058.734 2.13 1.444 3.202 2.156a11.408 11.408 0 0 0-.896 3.145c-2.894-.062-5.794-.1-8.673-.122a6.614 6.614 0 0 1-1.853-.284 6.01 6.01 0 0 1-.447-.155l-.596-.242-1.22-.497-4.883-1.972c-3.256-1.314-6.54-2.564-9.82-3.824-3.274-1.273-6.58-2.472-9.898-3.648a1.141 1.141 0 0 0-.916 2.083c3.108 1.65 6.226 3.28 9.376 4.832 3.145 1.567 6.286 3.143 9.454 4.656l4.754 2.268 1.19.563.608.287c.255.118.516.224.78.323a10.956 10.956 0 0 0 3.304.671c2.863.146 5.707.276 8.556.383.084.298.167.597.253.895-.878.711-1.755 1.424-2.62 2.152l-4.056 3.394a10.92 10.92 0 0 0-2.085 2.567l-1.296 2.246-2.565 4.49c-1.713 2.99-3.362 6.021-5.027 9.042-1.676 3.014-3.281 6.071-4.87 9.138a1.172 1.172 0 0 0 1.993 1.222c2.012-2.808 4.008-5.626 5.933-8.487 1.936-2.855 3.888-5.7 5.777-8.583l2.836-4.323 1.406-2.16a6.632 6.632 0 0 1 1.234-1.37l3.998-3.085c1.026-.78 2.035-1.582 3.046-2.382a11.498 11.498 0 0 0 2.703 1.825 615.633 615.633 0 0 0-2.794 8.211 6.63 6.63 0 0 1-.841 1.675c-.09.129-.184.256-.285.378l-.414.493-.848 1.007-3.381 4.038c-2.253 2.693-4.453 5.434-6.66 8.168-2.22 2.723-4.376 5.503-6.513 8.3a1.097 1.097 0 0 0 1.632 1.456c2.537-2.44 5.054-4.897 7.509-7.41 2.466-2.503 4.94-5 7.36-7.543l3.63-3.816.904-.957.462-.49c.19-.206.372-.421.547-.641a10.942 10.942 0 0 0 1.662-2.934 612.844 612.844 0 0 0 3.009-8.017c.309.012.617.026.926.036.406 1.054.812 2.108 1.238 3.154l1.975 4.906a10.927 10.927 0 0 0 1.797 2.777l1.736 1.926 3.476 3.827c2.316 2.553 4.69 5.058 7.047 7.575 2.349 2.525 4.76 4.997 7.186 7.456a1.172 1.172 0 0 0 1.779-1.519c-2.05-2.78-4.113-5.55-6.239-8.265-2.117-2.723-4.219-5.459-6.378-8.146l-3.235-4.033-1.62-2.005a6.623 6.623 0 0 1-.921-1.597l-1.698-4.756c-.425-1.215-.875-2.422-1.322-3.629a11.534 11.534 0 0 0 2.565-2.004 567.033 567.033 0 0 0 6.948 5.19 6.67 6.67 0 0 1 1.335 1.315c.095.126.188.254.273.387l.342.545.697 1.117 2.805 4.458c1.871 2.972 3.808 5.905 5.735 8.844.958 1.473 1.927 2.939 2.925 4.388.99 1.455 1.971 2.913 2.992 4.35a1.01 1.01 0 0 0 1.738-1.014c-.747-1.596-1.534-3.168-2.312-4.746a197.29 197.29 0 0 0-2.38-4.706c-1.609-3.125-3.208-6.254-4.873-9.346l-2.5-4.637-.628-1.157-.322-.59a10.937 10.937 0 0 0-.44-.72 10.91 10.91 0 0 0-2.274-2.489 565.45 565.45 0 0 0-6.688-5.34l.318-.864c1.126-.061 2.252-.122 3.377-.204l5.276-.364a10.94 10.94 0 0 0 3.196-.852l2.368-1.055 4.715-2.124c3.144-1.414 6.259-2.896 9.382-4.36 3.127-1.454 6.223-2.984 9.311-4.531a1.173 1.173 0 0 0 .588-1.418Z"/><circle class="cls-26" cx="698.529" cy="172.859" r="65.75"/><circle class="cls-27" cx="698.529" cy="172.859" r="53.126"/><circle cx="698.529" cy="172.859" r="45.236" style="stroke-width:3.53406px;stroke-linecap:round;stroke-linejoin:round;stroke:#000;fill:none"/><path d="m824.4 91.409-29.207 3.077a1.935 1.935 0 0 1-1.813-.85l-.32-.482a1.119 1.119 0 0 1 .818-1.733l27.011-2.752 2.52 1.31Z" style="mix-blend-mode:screen;fill:#ba1924"/><path d="m791.03 87.709 6.3 10.16a4.868 4.868 0 0 0 4.89 2.24l25.44-3.95" style="stroke-width:4px;stroke:#cc2f42;stroke-miterlimit:10;fill:none"/><circle cx="698.529" cy="172.859" r="40.502" style="stroke-width:3.16422px;stroke-linecap:round;stroke-linejoin:round;stroke:#000;fill:none"/><circle cx="698.529" cy="172.859" r="12.098"/><path d="M649.795 151.16c1.796.282 3.583.603 5.371.917q2.686.458 5.355.985c3.564.685 7.132 1.35 10.682 2.09l5.325 1.108 2.668.566a11.474 11.474 0 0 1 3.247 1.252l4.713 2.956c1.54.958 3.049 1.96 4.574 2.94l-3.101.01a222.214 222.214 0 0 1 4.057-2.71l-1.14 3.132a646.167 646.167 0 0 1-2.968-10.682 11.56 11.56 0 0 1-.406-3.524c.013-.295.034-.59.068-.884l.088-.702.175-1.374.713-5.495c.477-3.662 1.02-7.318 1.555-10.975.52-3.658 1.12-7.309 1.744-10.956a1.29 1.29 0 0 1 2.56.257c-.115 3.7-.254 7.396-.474 11.085-.205 3.69-.4 7.38-.664 11.065l-.396 5.526-.103 1.381-.05.675c-.01.166-.012.332-.01.498a6.92 6.92 0 0 0 .315 1.946 652.181 652.181 0 0 1 3.256 10.577 2.803 2.803 0 0 1-1.098 3.105l-.042.028c-1.342.92-2.702 1.813-4.063 2.703l-.046.03a2.767 2.767 0 0 1-3.055-.02c-1.504-1.01-3.025-1.997-4.515-3.03l-4.387-2.996a6.992 6.992 0 0 0-1.771-.789l-2.619-.704-5.247-1.432c-3.5-.953-6.98-1.981-10.466-2.99q-2.616-.746-5.218-1.554c-1.736-.532-3.474-1.057-5.202-1.623a1.234 1.234 0 0 1 .575-2.392ZM662.833 212.503c.823-1.621 1.68-3.221 2.532-4.825q1.266-2.413 2.592-4.789c1.752-3.177 3.487-6.365 5.288-9.512l2.699-4.723 1.363-2.363a11.487 11.487 0 0 1 2.194-2.7l4.267-3.57c1.386-1.17 2.805-2.296 4.207-3.445l-.95 2.958a215.478 215.478 0 0 1-1.326-4.696l2.633 2.057a591.963 591.963 0 0 1-11.076-.483 11.526 11.526 0 0 1-3.476-.706 11.515 11.515 0 0 1-.82-.34l-.64-.301-1.252-.593-5-2.386c-3.334-1.591-6.638-3.25-9.946-4.898-3.315-1.634-6.594-3.347-9.864-5.083a1.2 1.2 0 0 1 .964-2.192c3.49 1.237 6.968 2.498 10.412 3.838 3.45 1.325 6.905 2.641 10.331 4.023l5.137 2.075 1.283.522.628.255c.154.061.312.114.47.162a6.958 6.958 0 0 0 1.949.3c3.673.028 7.38.069 11.066.167a2.812 2.812 0 0 1 2.62 2.01l.013.047c.461 1.56.889 3.13 1.314 4.7l.015.056a2.77 2.77 0 0 1-.965 2.901c-1.427 1.118-2.837 2.257-4.28 3.355l-4.205 3.245a6.978 6.978 0 0 0-1.298 1.441l-1.48 2.272-2.983 4.549c-1.987 3.033-4.04 6.026-6.077 9.03q-1.519 2.257-3.091 4.482c-1.043 1.486-2.079 2.977-3.15 4.446a1.234 1.234 0 0 1-2.098-1.286ZM725.203 219.059c-1.288-1.284-2.545-2.594-3.807-3.9q-1.904-1.948-3.753-3.944c-2.48-2.648-4.977-5.283-7.413-7.969l-3.658-4.026-1.826-2.026a11.493 11.493 0 0 1-1.89-2.921l-2.078-5.162c-.683-1.679-1.317-3.377-1.977-5.065l2.521 1.82c-1.625-.05-3.25-.103-4.875-.19l2.773-1.87a566.559 566.559 0 0 1-3.884 10.383 11.51 11.51 0 0 1-1.748 3.087c-.184.232-.375.458-.576.674l-.485.515-.952 1.007-3.818 4.015c-2.547 2.676-5.15 5.302-7.744 7.935a220.164 220.164 0 0 1-3.92 3.923c-1.32 1.297-2.632 2.6-3.979 3.873a1.155 1.155 0 0 1-1.717-1.533c1.112-1.481 2.258-2.933 3.397-4.39a220.654 220.654 0 0 1 3.455-4.34c2.322-2.877 4.636-5.76 7.006-8.593l3.557-4.249.892-1.059.436-.518a6.31 6.31 0 0 0 .3-.398 6.978 6.978 0 0 0 .884-1.762 569.977 569.977 0 0 1 3.577-10.474 2.816 2.816 0 0 1 2.725-1.873l.049.002c1.626.044 3.25.123 4.875.204l.06.003a2.771 2.771 0 0 1 2.462 1.817c.62 1.702 1.268 3.395 1.866 5.107l1.786 5.003a6.969 6.969 0 0 0 .97 1.68l1.703 2.108 3.404 4.243c2.271 2.828 4.483 5.706 6.71 8.57q1.678 2.142 3.308 4.325c1.092 1.451 2.189 2.897 3.255 4.37a1.234 1.234 0 0 1-1.871 1.598ZM750.71 161.768c-1.618.828-3.252 1.618-4.884 2.415q-2.442 1.208-4.911 2.35c-3.285 1.541-6.563 3.101-9.87 4.589l-4.96 2.234-2.49 1.11a11.51 11.51 0 0 1-3.363.896l-5.55.383c-1.809.131-3.62.21-5.428.318l2.513-1.84c-.548 1.532-1.1 3.062-1.684 4.58l-.925-3.224c2.92 2.265 5.788 4.57 8.672 6.907a11.477 11.477 0 0 1 2.393 2.619c.163.247.319.498.462.756l.34.622.66 1.217 2.63 4.878q2.612 4.887 5.139 9.824t4.923 9.951a1.062 1.062 0 0 1-1.828 1.066q-3.184-4.554-6.237-9.184-3.055-4.63-6.021-9.31l-2.951-4.69-.734-1.176-.36-.573a6.33 6.33 0 0 0-.286-.408 7.017 7.017 0 0 0-1.405-1.383 525.404 525.404 0 0 1-8.86-6.634 2.825 2.825 0 0 1-.94-3.18l.016-.044a205.38 205.38 0 0 1 1.703-4.573l.022-.06a2.774 2.774 0 0 1 2.492-1.78c1.81-.063 3.621-.154 5.434-.194l5.31-.15a6.951 6.951 0 0 0 1.897-.403l2.532-.969 5.087-1.926c3.39-1.286 6.811-2.5 10.224-3.733q2.556-.934 5.135-1.81c1.718-.59 3.432-1.186 5.163-1.744a1.234 1.234 0 0 1 .94 2.273ZM704.106 119.804c.288 1.795.534 3.594.788 5.392q.394 2.696.718 5.397c.45 3.6.92 7.2 1.313 10.805l.592 5.407.287 2.712a11.514 11.514 0 0 1-.187 3.475l-1.35 5.397c-.435 1.76-.918 3.507-1.375 5.261l-.973-2.96c1.287.994 2.572 1.991 3.835 3.016l-3.354-.117a510.382 510.382 0 0 1 9.25-6.112 11.466 11.466 0 0 1 3.23-1.465c.285-.079.572-.15.862-.206l.696-.13 1.362-.252 5.452-.99q5.457-.97 10.934-1.843t10.988-1.594a1.034 1.034 0 0 1 .438 2.015q-5.314 1.628-10.66 3.106-5.345 1.48-10.713 2.858l-5.372 1.36-1.344.336-.657.165c-.16.042-.32.093-.476.147a7.03 7.03 0 0 0-1.749.91c-2.985 2.141-6.004 4.292-9.046 6.377a2.828 2.828 0 0 1-3.317-.088l-.038-.03c-1.29-.99-2.557-2.01-3.822-3.032l-.05-.04a2.775 2.775 0 0 1-.923-2.921c.5-1.742.972-3.492 1.495-5.228l1.498-5.096a6.946 6.946 0 0 0 .204-1.93l-.14-2.707-.26-5.433c-.174-3.622-.272-7.25-.39-10.877q-.099-2.72-.134-5.443c-.03-1.816-.068-3.631-.065-5.45a1.234 1.234 0 0 1 2.453-.192Z"/><path class="cls-32" d="m514.029 94.609-235-2 230.636 14.695 4.364-12.695z"/><path d="m488.03 180.609-218 13 8.753-3.501a87.679 87.679 0 0 1 23.292-5.78l190.467-20.253Z" style="opacity:.41;mix-blend-mode:screen;fill:#eabe50"/><path class="cls-3" d="m615.03 206.609-260 5h-94.4l35.9-7.48a27.617 27.617 0 0 1 5.05-.58l273.65-6.68a60.027 60.027 0 0 1 21.01 3.26Z"/><path class="cls-12" d="M841.16 142.749c-31.62 4.88-27.75-.96-27.52-1.27a7.716 7.716 0 0 0 1.39.13c3.14 0 11.78-1.57 17.79-2.74l7.78 2.6a.702.702 0 0 1 .48.59ZM842.3 162.289l-.56 2.05-36.72 4.23a1.331 1.331 0 0 1-.62-2.57 75.02 75.02 0 0 1 37.9-3.71Z"/><path class="cls-34" d="m820.58 75.929-34.94 10.87a5.357 5.357 0 0 1-4.8-.83l-5.81-4.36 3.71.62a13.236 13.236 0 0 0 4.86-.09c9.5-1.93 19.69-6.26 27.32-10.01h.01l4.86-1.21a1.824 1.824 0 0 1 1.95.75l2.83 4.24c0 .01.01.01.01.02ZM262.03 92.609s-44-9-87-7-82.7 32.92-82.7 32.92c-24.06-.63-51.23 6.5-69.43 12.44a21.826 21.826 0 0 1 2.39-2.86 41.597 41.597 0 0 1 7.06-5.84c36.44-24.1 126.59-39.34 153.79-43.5a100.338 100.338 0 0 1 15.29-1.16h6.16l45.64 7.99a11.63 11.63 0 0 1 8.43 6.27Z"/><path class="cls-18" d="M325.21 31.199c.01 0 .02-.01.03-.01a.124.124 0 0 0-.03.02Z"/><path class="cls-34" d="m790.37 71.019-1.34 2.59-12.3 4.1a22.81 22.81 0 0 1-11.338.81c-52.894-9.735-107.246-6.251-132.628-3.678a.921.921 0 0 1-.28-1.818c32.838-6.964 69.601-7.53 90.812-7.11a2.18 2.18 0 0 0 .645-4.276c-18.932-5.384-54.598-15.238-111.911-30.028-93-24-199-23-199-23a203.127 203.127 0 0 0-77.73 17.56q4.33-2.105 8.74-4.11a.657.657 0 0 0 .125-1.129 44.461 44.461 0 0 0-9.026-4.951c.54-.18 1.09-.34 1.64-.5 37.94-11 92.25-12.87 92.25-12.87 129-3 307 57 324 61 9.84 2.31 25.71 5.3 37.34 7.41ZM52.03 200.609l49-3s-14-6-30-4c-7 1-14 6-19 7ZM68.7 190.619l-20.17 6.93-13.5 1.06-2.64 1.82a26.915 26.915 0 0 0-6.59-.82H9.28a.248.248 0 0 1-.25-.25v-1.65a.26.26 0 0 1 .07-.17l1.8-1.8 21.04-5.13a2.15 2.15 0 0 0 2.24 1.9l18.66-.89c.13-.01.25-.02.38-.04l8.6-1.17Z"/><path class="cls-35" d="m60.018 152.859 7.511-7.75h-5s-3.023 5.833-2.511 7.416M43.018 154.859l7.511-7.75h-5s-3.023 5.833-2.511 7.416"/><path class="cls-14" d="m835.35 187.529-.36 1.3a17.316 17.316 0 0 1-14 12.52l-24.13 3.81c20.02-7.15 21.67-17.05 21.67-17.05Z"/><circle class="cls-22" cx="698.529" cy="173.359" r="66.25"/><circle class="cls-2" cx="698.529" cy="173.359" r="53"/><circle class="cls-23" cx="698.529" cy="173.359" r="40.81"/><path d="M671.107 221.455a2.223 2.223 0 0 1-1.766-3.573c1.878-2.457 4.362-5.679 6.924-8.823l.841-1.042c2.026-2.511 4.12-5.108 6.228-7.626l4.923-5.872c.083-.101.165-.213.245-.328a5.919 5.919 0 0 0 .753-1.499 686.206 686.206 0 0 1 2.67-7.862 13.276 13.276 0 0 1-1.588-1.075c-.85.673-1.703 1.344-2.566 2l-4.232 3.266a5.917 5.917 0 0 0-1.075 1.203l-1.482 2.277-3.008 4.587a512.948 512.948 0 0 1-4.833 7.196l-1.3 1.915c-2.124 3.156-4.285 6.2-6.304 9.018a2.303 2.303 0 0 1-3.917-2.401c1.511-2.915 3.308-6.349 5.178-9.714l1.084-1.969a507.58 507.58 0 0 1 4.251-7.627l2.719-4.758 1.375-2.385a12.63 12.63 0 0 1 2.418-2.977l4.33-3.624q.847-.714 1.71-1.414c-2.544-.102-5.087-.22-7.644-.35a12.625 12.625 0 0 1-3.82-.778 12.751 12.751 0 0 1-.9-.373l-1.915-.905-5.041-2.405c-2.965-1.415-5.953-2.906-8.841-4.347l-1.197-.597c-3.603-1.775-7.059-3.591-9.964-5.134a2.27 2.27 0 0 1 1.824-4.143c2.888 1.024 6.694 2.39 10.52 3.879l1.373.527c2.972 1.14 6.045 2.318 9.05 3.53l5.176 2.09 1.927.785c.12.048.255.092.39.134a5.945 5.945 0 0 0 1.655.253c2.756.022 5.528.057 8.297.111a13.174 13.174 0 0 1 .531-1.853c-.9-.598-1.8-1.2-2.69-1.816l-4.413-3.014a5.903 5.903 0 0 0-1.478-.651l-2.623-.706-5.291-1.443a519.673 519.673 0 0 1-8.295-2.36l-2.266-.657c-3.69-1.053-7.391-2.214-10.526-3.21a2.302 2.302 0 0 1 .697-4.496 2.342 2.342 0 0 1 .378.03c3.241.537 7.065 1.184 10.837 1.922l2.308.442c2.777.53 5.649 1.079 8.467 1.667l5.365 1.116 2.693.57a12.572 12.572 0 0 1 3.58 1.382l4.783 2.998c.63.392 1.258.793 1.884 1.196a767.621 767.621 0 0 1-2.037-7.386 12.674 12.674 0 0 1-.444-3.872c.013-.325.036-.65.075-.972l.265-2.1.719-5.54c.423-3.252.906-6.549 1.374-9.738l.196-1.338c.573-4.035 1.242-8.033 1.76-11.065a2.353 2.353 0 0 1 2.325-1.961 2.29 2.29 0 0 1 .4.034 2.368 2.368 0 0 1 1.96 2.4c-.097 3.083-.238 7.143-.48 11.198l-.075 1.35a612.825 612.825 0 0 1-.594 9.81l-.4 5.569-.153 2.074c-.009.13-.01.272-.008.41a5.865 5.865 0 0 0 .268 1.654q1.241 3.942 2.451 7.922a12.404 12.404 0 0 1 1.411-.082c.17 0 .341.003.515.01.293-1.04.588-2.078.9-3.114l1.507-5.129a5.869 5.869 0 0 0 .163-1.605l-.14-2.712-.262-5.48c-.14-2.893-.232-5.835-.321-8.68l-.073-2.295c-.138-3.819-.179-7.705-.2-11.002a2.303 2.303 0 0 1 2.288-2.318 2.32 2.32 0 0 1 2.29 1.958c.493 3.251 1.059 7.09 1.522 10.901l.285 2.268c.357 2.826.726 5.75 1.04 8.632l.596 5.45.29 2.735a12.661 12.661 0 0 1-.206 3.83l-1.37 5.48c-.174.708-.358 1.416-.543 2.125q3.168-2.114 6.378-4.192a12.563 12.563 0 0 1 3.55-1.61c.315-.086.632-.164.951-.225l2.08-.387 5.497-.998c3.215-.582 6.491-1.11 9.66-1.622l1.38-.224c2.156-.358 3.922-.63 5.55-.854l.809-.118c1.58-.23 3.161-.46 4.75-.654a1.985 1.985 0 0 1 .258-.017 2.103 2.103 0 0 1 .63 4.11c-1.476.466-2.96.898-4.445 1.331l-.939.274c-1.55.464-3.27.949-5.402 1.523l-1.346.369c-3.095.847-6.295 1.725-9.461 2.53l-5.413 1.37-2.019.504a5.91 5.91 0 0 0-.39.122 5.983 5.983 0 0 0-1.489.775 593.616 593.616 0 0 1-6.769 4.791 13.136 13.136 0 0 1 .65 1.797c1.08-.043 2.16-.084 3.24-.107l5.343-.152a5.828 5.828 0 0 0 1.577-.342l2.537-.97 5.13-1.943a514.323 514.323 0 0 1 8.146-2.984l2.17-.782c3.597-1.314 7.277-2.553 10.402-3.59a2.302 2.302 0 0 1 1.756 4.243c-3.103 1.555-6.45 3.214-9.897 4.816l-2.046.96a517.88 517.88 0 0 1-7.91 3.668l-4.997 2.252-2.514 1.12a12.635 12.635 0 0 1-3.706.988l-5.634.39q-1.095.078-2.193.14 2.99 2.36 5.96 4.77a12.565 12.565 0 0 1 2.63 2.88c.177.269.349.546.507.832l1.012 1.86 2.65 4.917c1.547 2.873 3.064 5.82 4.53 8.67l.646 1.254a209.134 209.134 0 0 1 2.532 5.011l.398.804a219.671 219.671 0 0 1 2.06 4.24 2.13 2.13 0 0 1-1.928 3.035 2.135 2.135 0 0 1-1.738-.897 215.507 215.507 0 0 1-2.639-3.826l-.544-.8a207.631 207.631 0 0 1-3.113-4.671l-.74-1.129c-1.77-2.695-3.6-5.482-5.347-8.258l-4.077-6.49a5.737 5.737 0 0 0-.235-.333 6.002 6.002 0 0 0-1.198-1.179 616.078 616.078 0 0 1-6.654-4.964 13.194 13.194 0 0 1-1.508 1.175c.376 1.016.75 2.031 1.107 3.054l1.797 5.035a5.922 5.922 0 0 0 .813 1.395l1.707 2.112 3.432 4.278c1.823 2.27 3.636 4.609 5.39 6.87l1.38 1.78c2.357 3.007 4.674 6.127 6.63 8.781a2.302 2.302 0 0 1-3.494 2.982c-2.308-2.34-5.022-5.112-7.638-7.923l-1.554-1.657a515.888 515.888 0 0 1-5.924-6.383l-3.686-4.058-1.842-2.045a12.612 12.612 0 0 1-2.085-3.218l-2.11-5.239q-.415-1.022-.814-2.055-1.324 3.58-2.695 7.155a12.576 12.576 0 0 1-1.923 3.392c-.2.253-.41.502-.632.74l-1.454 1.54-3.85 4.048c-2.24 2.354-4.558 4.705-6.8 6.978l-1.015 1.031c-2.846 2.913-5.76 5.74-7.98 7.875a2.213 2.213 0 0 1-1.54.621Z" style="stroke-width:.795px;stroke-miterlimit:10;stroke:#000"/><path class="cls-25" d="M698.53 119.829a53.53 53.53 0 1 0 53.53 53.53 53.53 53.53 0 0 0-53.53-53.53Zm0 101.28a47.75 47.75 0 1 1 47.75-47.75 47.748 47.748 0 0 1-47.75 47.75Z"/><path class="cls-25" d="M751.73 160.68a1.243 1.243 0 0 0-1.57-.787c-3.476 1.155-6.943 2.328-10.377 3.582-3.438 1.242-6.885 2.465-10.301 3.761l-5.126 1.94-2.551.977a7.007 7.007 0 0 1-1.912.406l-5.35.151c-1.363.03-2.723.087-4.084.142a12.103 12.103 0 0 0-1.18-3.241 587.573 587.573 0 0 0 7.5-5.3 7.081 7.081 0 0 1 1.762-.917c.158-.055.318-.106.48-.148l.662-.167 1.354-.338 5.412-1.37c3.608-.916 7.2-1.91 10.792-2.894 1.799-.485 3.594-.983 5.381-1.518 1.79-.523 3.582-1.036 5.363-1.598a1.043 1.043 0 0 0-.44-2.03c-1.855.227-3.698.503-5.544.77-1.848.255-3.688.546-5.525.85-3.678.596-7.358 1.18-11.02 1.843l-5.494.998-1.372.254-.701.13a11.6 11.6 0 0 0-.87.207 11.555 11.555 0 0 0-3.254 1.477 585.574 585.574 0 0 0-7.575 4.991c-.255-.2-.509-.402-.765-.602.307-1.154.614-2.31.9-3.47l1.36-5.438a11.6 11.6 0 0 0 .19-3.501l-.29-2.733-.596-5.449c-.396-3.632-.87-7.258-1.323-10.886-.441-3.629-.97-7.251-1.517-10.871a1.243 1.243 0 0 0-2.472.194c.025 3.661.069 7.321.2 10.975.12 3.654.218 7.31.394 10.96l.262 5.474.14 2.728a6.999 6.999 0 0 1-.205 1.944l-1.51 5.135c-.392 1.305-.759 2.617-1.128 3.929a11.737 11.737 0 0 0-3.462.131 746.54 746.54 0 0 0-2.711-8.781 6.972 6.972 0 0 1-.318-1.961 6.35 6.35 0 0 1 .01-.501l.05-.68.104-1.392.4-5.568c.265-3.713.461-7.432.668-11.15.221-3.716.362-7.441.478-11.168a1.3 1.3 0 0 0-2.58-.26c-.628 3.676-1.233 7.354-1.757 11.04-.538 3.685-1.087 7.368-1.567 11.059l-.719 5.536-.175 1.384-.089.708a11.61 11.61 0 0 0-.068.891 11.647 11.647 0 0 0 .408 3.551 740.679 740.679 0 0 0 2.423 8.753l-.825.552a182.44 182.44 0 0 0-3.03-1.94l-4.75-2.978a11.56 11.56 0 0 0-3.27-1.262l-2.69-.57-5.365-1.117c-3.577-.746-7.172-1.415-10.763-2.105-3.587-.702-7.195-1.32-10.808-1.917a1.243 1.243 0 0 0-.579 2.41c3.49 1.109 6.985 2.198 10.5 3.202 3.512 1.016 7.019 2.052 10.545 3.012l5.287 1.443 2.638.71a7.046 7.046 0 0 1 1.786.794l4.42 3.019c1.121.777 2.258 1.53 3.394 2.285a12.093 12.093 0 0 0-.95 3.334 681.961 681.961 0 0 0-9.194-.13 7.011 7.011 0 0 1-1.963-.301 6.384 6.384 0 0 1-.474-.164l-.632-.256-1.293-.527-5.176-2.09c-3.452-1.393-6.933-2.719-10.41-4.054-3.47-1.35-6.975-2.62-10.49-3.867a1.21 1.21 0 0 0-.973 2.208c3.295 1.75 6.6 3.476 9.94 5.122 3.333 1.661 6.662 3.332 10.02 4.935l5.04 2.404 1.261.597.645.304c.27.126.547.238.826.342a11.614 11.614 0 0 0 3.503.712c3.034.155 6.049.292 9.069.405.089.317.177.633.268.95-.93.754-1.86 1.509-2.776 2.28l-4.3 3.598a11.574 11.574 0 0 0-2.21 2.721l-1.374 2.381-2.72 4.759c-1.814 3.17-3.562 6.383-5.328 9.585-1.776 3.195-3.478 6.435-5.162 9.687a1.243 1.243 0 0 0 2.113 1.295c2.133-2.977 4.248-5.964 6.29-8.996 2.05-3.027 4.12-6.042 6.122-9.098l3.006-4.583 1.49-2.29a7.03 7.03 0 0 1 1.309-1.452l4.237-3.27c1.088-.827 2.158-1.677 3.23-2.525a12.188 12.188 0 0 0 2.865 1.935 652.462 652.462 0 0 0-2.962 8.704 7.028 7.028 0 0 1-.892 1.775 6.387 6.387 0 0 1-.301.4l-.44.523-.899 1.067-3.583 4.281c-2.388 2.855-4.72 5.76-7.06 8.658-2.353 2.887-4.638 5.833-6.904 8.797a1.163 1.163 0 0 0 1.73 1.544c2.69-2.586 5.358-5.19 7.96-7.855 2.614-2.653 5.236-5.299 7.802-7.995l3.847-4.045.959-1.015.489-.519c.203-.218.395-.446.58-.68a11.599 11.599 0 0 0 1.762-3.11 649.19 649.19 0 0 0 3.19-8.497c.327.013.654.027.981.038.43 1.117.86 2.234 1.312 3.343l2.093 5.2a11.582 11.582 0 0 0 1.905 2.944l1.84 2.041 3.685 4.057c2.456 2.707 4.97 5.361 7.47 8.03 2.49 2.677 5.046 5.296 7.617 7.903a1.243 1.243 0 0 0 1.886-1.61c-2.172-2.948-4.36-5.883-6.613-8.76-2.244-2.887-4.473-5.787-6.76-8.636l-3.43-4.275-1.718-2.125a7.02 7.02 0 0 1-.976-1.693l-1.8-5.04c-.45-1.29-.927-2.568-1.4-3.848a12.226 12.226 0 0 0 2.718-2.124 601.093 601.093 0 0 0 7.365 5.501 7.07 7.07 0 0 1 1.415 1.394c.1.133.199.27.29.41l.362.579.739 1.184 2.973 4.725c1.984 3.15 4.037 6.26 6.08 9.374a208.733 208.733 0 0 0 3.1 4.652c1.049 1.541 2.09 3.088 3.172 4.61a1.07 1.07 0 0 0 1.841-1.074c-.792-1.692-1.625-3.359-2.45-5.03a209.303 209.303 0 0 0-2.523-4.99c-1.705-3.311-3.4-6.629-5.166-9.906l-2.648-4.915-.667-1.227-.341-.626c-.145-.26-.302-.513-.466-.762a11.565 11.565 0 0 0-2.411-2.639 599.159 599.159 0 0 0-7.09-5.66c.113-.306.227-.61.338-.916a194.34 194.34 0 0 0 3.58-.216l5.592-.386a11.596 11.596 0 0 0 3.388-.903l2.51-1.118 4.997-2.252c3.333-1.498 6.635-3.07 9.945-4.622 3.315-1.54 6.597-3.163 9.87-4.803a1.243 1.243 0 0 0 .623-1.502Z"/><circle class="cls-37" cx="183.529" cy="177.109" r="7"/><circle class="cls-37" cx="698.529" cy="173.109" r="7"/><path class="cls-38" d="m842.84 160.319-7.85 28.51a17.318 17.318 0 0 1-14 12.52l-44.64 7.05a1.17 1.17 0 0 1-1.35-1.13l-.65-33.67a75.332 75.332 0 0 0-150.64 0l-.66 36.61a1.415 1.415 0 0 1-1.42 1.4h-364.3a1.332 1.332 0 0 1-1.34-1.3l-.96-33.23a71.525 71.525 0 0 0-142.99.01l-.97 33.71a1.35 1.35 0 0 1-1.35 1.31H51.13a3.877 3.877 0 0 1-2.73-1.13l-3.43-3.43a27.12 27.12 0 0 0-19.17-7.94H9.28a.248.248 0 0 1-.25-.25v-1.65a.26.26 0 0 1 .07-.17l3.05-3.05a3.419 3.419 0 0 0 .99-2.12l3.53-40.61a35.134 35.134 0 0 1 1.68-8.11l3.68-11.04a14.777 14.777 0 0 1 3.26-4.5 41.597 41.597 0 0 1 7.06-5.84c36.44-24.1 126.59-39.34 153.79-43.5a100.338 100.338 0 0 1 15.29-1.16h10.52a3.564 3.564 0 0 0 1.98-.59c43.52-28.54 101.65-53.22 115.86-59.09a66.515 66.515 0 0 1 6.99-2.45c37.94-11 92.25-12.87 92.25-12.87 129-3 307 57 324 61 14.97 3.52 43.91 8.6 50.6 9.76a6.687 6.687 0 0 0 2.78-.11l9.38-2.34a1.824 1.824 0 0 1 1.95.75l2.83 4.24a1.829 1.829 0 0 1 .23 1.51l-1.59 5.54a1.456 1.456 0 0 0 .2 1.2l10.43 15.17a1.132 1.132 0 0 1 .19.62v3.87a1.096 1.096 0 0 1-.75 1.04l-1.83.61a.528.528 0 0 0-.35.58l4.88 32.2a.575.575 0 0 0 .39.47l8.23 2.75a.702.702 0 0 1 .48.59l1.87 16.82a4.115 4.115 0 0 1-.11 1.44Z"/><path d="M616.698 186.485c-30.074 1.389-60.157 2.535-90.238 3.727l-45.122 1.767-45.128 1.613-90.255 3.226-90.26 3.07a1 1 0 0 1-.07-1.999l90.253-3.265 90.26-3.11 45.129-1.555 45.135-1.4c30.09-.92 60.18-1.886 90.277-2.61a.268.268 0 0 1 .019.536Z"/><path class="cls-39" d="M612.14 66.239a3.868 3.868 0 0 1-.84.12l-120.02 3.58-3.42.1-211.05 6.3-2.9.09-5.88.18s21.5-15.5 55.5-34.5c44-26 89-25 89-25q4.604-.045 9.2 0c.71 0 1.43.01 2.14.02 1.17.01 2.33.04 3.5.06.21.01.42.01.63.01q2.534.06 5.07.15h.12c1.56.05 3.11.11 4.66.18q3.09.135 6.15.3c1.55.09 3.1.18 4.64.28a1.147 1.147 0 0 1 .19.01q2.43.15 4.86.33c1.16.09 2.3.17 3.44.27q1.514.105 3 .24l3.79.33c1.68.15 3.35.31 5.02.48 1.39.14 2.77.28 4.15.43 5.98.63 11.85 1.35 17.59 2.12.99.14 1.98.27 2.96.41q6.134.855 12.03 1.8c.74.11 1.47.23 2.2.35 2.92.46 5.8.95 8.61 1.44 1.41.24 2.81.49 4.19.74.03 0 .05.01.07.01 1.35.25 2.69.49 4.01.73q4.304.81 8.42 1.62c31.54 6.25 53.95 12.83 59.2 14.35a45.832 45.832 0 0 1 9.92 4.52 10.099 10.099 0 0 1 2.03 1.66l9.57 10.16a3.713 3.713 0 0 1-1.75 6.13Z"/><path d="M528.421 34.649c-21.206-3.946-42.538-7.258-63.994-9.258-10.723-1.031-21.473-1.75-32.233-2.065l-8.07-.152c-2.69.002-5.378-.033-8.07 0l-4.046.05c-1.331.014-2.66.061-3.996.129-1.335.074-2.669.15-4.003.268-1.334.095-2.667.224-3.998.371A196.134 196.134 0 0 0 338.468 41.3c-4.885 2.19-9.545 4.805-14.286 7.367-4.75 2.575-9.415 5.238-14.129 7.856q-7.05 3.951-14.008 8.068c-4.672 2.691-9.282 5.487-13.915 8.253a.15.15 0 0 1-.165-.25c4.384-3.153 8.867-6.163 13.357-9.165q6.78-4.435 13.667-8.706c4.574-2.87 9.255-5.594 13.91-8.303 4.682-2.687 9.367-5.474 14.275-7.826 19.583-9.562 41.005-14.983 62.605-16.99 1.351-.13 2.705-.243 4.062-.32a122.51 122.51 0 0 1 4.072-.216c1.359-.05 2.726-.08 4.092-.075l4.045.006c2.7.004 5.407.077 8.11.112l8.104.266c10.803.467 21.58 1.339 32.317 2.522 21.475 2.404 42.763 6.116 63.898 10.456a.15.15 0 0 1-.058.294ZM520.295 67.471l12.238-35.262a.472.472 0 0 1 .903.272l-9.312 36.146a2.002 2.002 0 0 1-3.877-1 2.12 2.12 0 0 1 .048-.156ZM21.701 130.774c7.186-2.61 14.505-4.79 21.881-6.73a330.19 330.19 0 0 1 22.312-5.02q11.233-2.13 22.57-3.611l1.415-.193c.04-.007.144-.017.262-.024l.33-.014a4.734 4.734 0 0 1 .674.063 3.703 3.703 0 0 1 2.842 2.642 3.617 3.617 0 0 1-.27 2.673 3.316 3.316 0 0 1-.366.567l-.21.256-.127.142-.45.504c-.295.341-.614.655-.89 1.02-.563.713-1.151 1.402-1.67 2.16a69.633 69.633 0 0 0-5.67 9.494c-6.515 13.397-9.89 28.277-11.648 43.191-.259 1.864-.43 3.74-.59 5.616l-.255 2.814-.131 1.437a6.351 6.351 0 0 1-.448 1.83 6.17 6.17 0 0 1-2.41 2.88 6.262 6.262 0 0 1-.85.442l-.447.167-.339.111-1.356.443-5.426 1.758-5.443 1.704-2.728.826c-.468.139-.879.275-1.394.415a11.873 11.873 0 0 1-1.55.263 18.032 18.032 0 0 1-3.004.023l-2.845-.154c-1.897-.11-3.794-.204-5.69-.36a.502.502 0 0 1 0-1c1.896-.156 3.793-.25 5.69-.36l2.845-.155a15.925 15.925 0 0 0 2.674-.242 12.49 12.49 0 0 0 1.236-.31l1.305-.484 2.662-.998 5.339-1.944 5.354-1.89 1.339-.47.335-.117.217-.087a4.104 4.104 0 0 0 .407-.222 3.033 3.033 0 0 0 1.168-1.425 3.201 3.201 0 0 0 .219-.925l.118-1.397.239-2.856c.15-1.904.311-3.808.56-5.705 1.696-15.168 4.996-30.368 11.685-44.374a67.582 67.582 0 0 1 5.971-10.033c.556-.807 1.199-1.564 1.814-2.336.3-.391.656-.747.982-1.122l.5-.556.11-.124a.046.046 0 0 1 .012-.02c.02-.01.012-.023.02-.028.038-.004-.001-.169-.072-.201-.05-.016.037-.031-.183-.01l-1.404.188q-11.24 1.46-22.384 3.536a318.386 318.386 0 0 0-43.84 11.162 1.5 1.5 0 0 1-.997-2.83Z"/><path d="M75.682 141.904c-3.383.608-6.777 1.133-10.169 1.682l-10.194 1.502c-3.402.48-6.811.899-10.229 1.315-1.71.206-3.419.399-5.158.563-.446.034-.859.084-1.338.102l-.35.018a2.817 2.817 0 0 1-.412.002 4.088 4.088 0 0 1-1.012-.163 5.17 5.17 0 0 1-2.734-2.287 16.301 16.301 0 0 1-1.905-5.357 42.379 42.379 0 0 1-.684-5.305l-.075-1.326-.004-.26a3.043 3.043 0 0 1 .202-1.026 3 3 0 0 1 .803-1.159 3.081 3.081 0 0 1 .582-.404l.235-.114.151-.068.606-.274 1.212-.523c1.616-.674 3.241-1.27 4.864-1.866 6.492-2.365 13.033-4.474 19.621-6.443l.456-.071.05-.009a1.451 1.451 0 0 1 .572 2.845l-.573.127-.05.01.455-.07-9.716 3.343c-3.235 1.114-6.474 2.216-9.67 3.396a178.904 178.904 0 0 0-4.746 1.822l-1.16.475-.571.246-.143.062-.067.029.01-.006a.238.238 0 0 0 .054-.04.281.281 0 0 0 .074-.115.38.38 0 0 0 .012-.058v-.035l.001.07.048 1.245a39.257 39.257 0 0 0 .54 4.909 13.57 13.57 0 0 0 1.403 4.334 2.293 2.293 0 0 0 1.05 1.04 1.55 1.55 0 0 0 .254.05 1.013 1.013 0 0 0 .231.007l.293-.003c.378.003.82-.03 1.23-.044 1.684-.088 3.392-.21 5.096-.344l10.246-.854 10.262-.822c3.426-.24 6.848-.517 10.28-.719a.288.288 0 0 1 .067.57ZM262.08 116.948c-.375-6.887-.701-13.777-.699-20.705l.032-2.603.039-1.305.027-.654.016-.347a3.306 3.306 0 0 1 .07-.464 3.429 3.429 0 0 1 .132-.444l.107-.307.21-.61.42-1.222.838-2.443 3.355-9.766a1.5 1.5 0 1 1 2.838.975c-.01.028-.021.06-.032.086l-3.96 9.57-1.92 4.651a1.276 1.276 0 0 0-.04.173l-.031.297-.065.635-.115 1.275-.187 2.56c-.417 6.849-.51 13.746-.55 20.635a.242.242 0 0 1-.485.013ZM265.787 198.573q-1.096-17.672-1.939-35.345c-.564-11.785-1.045-23.574-1.37-35.367a.197.197 0 0 1 .394-.015c.592 11.778 1.34 23.548 2.171 35.31q1.253 17.644 2.739 35.267a1 1 0 0 1-1.993.176ZM259.412 121.172l-32.975 1.716a1 1 0 0 1-.104-1.997l.05-.002 33.019-.08a.181.181 0 0 1 .01.363ZM137.637 125.308l-45.266.483a.246.246 0 0 1-.013-.491l45.224-1.99a1 1 0 0 1 .088 1.998ZM534.184 25.272l.95-3.82c.335-1.292.594-2.509.99-3.86a7.963 7.963 0 0 1 .953-1.914 8.08 8.08 0 0 1 .666-.853l.666-.736 2.643-2.917a1.001 1.001 0 0 1 1.484 1.344 1.088 1.088 0 0 1-.07.07l-2.917 2.644-.722.656a6.64 6.64 0 0 0-1.56 2.153c-.456 1.128-.886 2.443-1.33 3.655l-1.32 3.708a.226.226 0 0 1-.433-.13ZM483.502 190.57l8.62-28.97 8.748-28.93 8.852-28.9c1.479-4.815 2.932-9.639 4.47-14.436 1.55-4.794 3.17-9.567 4.944-14.294a.257.257 0 0 1 .49.148c-1.135 4.92-2.425 9.792-3.786 14.643-1.371 4.848-2.829 9.67-4.26 14.5l-8.61 28.972-8.712 28.942-8.841 28.903a1 1 0 0 1-1.915-.578ZM515.707 94.485c20.83.035 41.648.392 62.462.847l15.609.39 7.803.212c.276-.002.769.044 1.198.089a9.327 9.327 0 0 1 1.302.266 8.535 8.535 0 0 1 5.602 5.33 8.39 8.39 0 0 1 .148 5.294 6.878 6.878 0 0 1-.482 1.25c-.091.19-.201.426-.282.574l-.237.427-.944 1.708-3.777 6.831c-2.504 4.563-5.068 9.09-7.618 13.628-2.553 4.534-5.089 9.078-7.684 13.59l-3.872 6.778c-.662 1.14-1.252 2.235-1.974 3.413-.364.585-.709 1.18-1.089 1.754l-1.183 1.69a42.413 42.413 0 0 1-27.364 16.7c-2.749.41-5.304.564-7.898.805l-7.778.678c-5.183.467-10.372.88-15.561 1.29-10.376.842-20.757 1.635-31.15 2.322a.551.551 0 0 1-.111-1.096q15.474-2.147 30.975-4.03c5.164-.651 10.33-1.297 15.5-1.888l7.754-.91c2.578-.314 5.218-.566 7.605-1a38.638 38.638 0 0 0 24.279-15.58l1.029-1.524c.331-.516.629-1.052.946-1.577.625-1.047 1.256-2.252 1.884-3.37l3.772-6.835c2.501-4.564 5.062-9.095 7.604-13.636 2.547-4.538 5.079-9.085 7.67-13.598l3.868-6.78.967-1.696.241-.424c.076-.136.095-.2.148-.3a2.505 2.505 0 0 0 .228-.564 3.672 3.672 0 0 0-.033-2.37 3.958 3.958 0 0 0-1.43-1.95 3.915 3.915 0 0 0-1.077-.558 4.857 4.857 0 0 0-.604-.137 7.35 7.35 0 0 0-.747-.071l-7.797-.396-15.591-.828c-20.787-1.17-41.57-2.436-62.34-4.025a.362.362 0 0 1 .029-.723ZM650.5 118.339l-44.088.266a.376.376 0 0 1-.015-.753l44.062-1.513a1 1 0 1 1 .069 1.999Z"/><path class="cls-38" d="M832.82 138.869c-6.01 1.17-14.65 2.74-17.79 2.74-5 0-7-5-7-5-9.59-27.3-18.1-39.9-21.9-44.63a2.217 2.217 0 0 1 1.2-3.54c6.53-1.59 19.12-2.4 24.79-2.69a10.593 10.593 0 0 1 5.44 1.18l5.85 3.05 6.43 9.35a1.132 1.132 0 0 1 .19.62v3.87a1.096 1.096 0 0 1-.75 1.04l-1.83.61a.528.528 0 0 0-.35.58l4.88 32.2a.575.575 0 0 0 .39.47Z"/><path d="m822.158 105.847 1.995 16.284.998 8.142.498 4.07c.078.683.178 1.349.238 2.045a1.467 1.467 0 0 1-1.258 1.45 1.404 1.404 0 0 0 1.133-1.446c-.098-.66-.241-1.34-.36-2.01l-.745-4.033-1.492-8.066-2.984-16.132a1 1 0 1 1 1.968-.364l.009.06ZM804.479 111.009c1.216 1.842 2.314 3.742 3.381 5.658a140.29 140.29 0 0 1 3.055 5.818q1.475 2.935 2.824 5.932 1.358 2.991 2.554 6.063l.017.046a.198.198 0 0 1 .012.091 57.498 57.498 0 0 1-.369 2.74 57.48 57.48 0 0 1-.216-2.756l.03.137q-1.698-2.826-3.222-5.737-1.541-2.903-2.952-5.869a140.293 140.293 0 0 1-2.72-5.982c-.858-2.017-1.686-4.05-2.394-6.141Z"/><path class="cls-39" d="M830.03 99.949v3.87a1.096 1.096 0 0 1-.75 1.04l-.87.29-31.93 3.73c-4.52-9-8.19-14.22-10.35-16.9a2.217 2.217 0 0 1 1.2-3.54c6.53-1.59 19.12-2.4 24.79-2.69a10.593 10.593 0 0 1 5.44 1.18l5.85 3.05 6.43 9.35a1.132 1.132 0 0 1 .19.62Z"/><path d="m797.718 103.287 31.52-6.365a1.162 1.162 0 0 1 .222-.023h.09a2 2 0 0 1 0 4h-.01l.3-.023-31.986 3.306a.453.453 0 0 1-.136-.895ZM743.44 113.164l46.186-3.794a.192.192 0 0 1 .038.381l-46.025 5.403a1 1 0 0 1-.233-1.987Z"/><path d="m841.25 166.109-5.65 20.51-18.87 1.53a2.86 2.86 0 0 1-2.64-4.38l7.6-12.03a5.8 5.8 0 0 1 3.81-2.61Z" style="stroke-width:3px;stroke-linecap:round;stroke-linejoin:round;stroke:#000;fill:none"/><path d="M825.071 173.875a1.833 1.833 0 0 1 1.145-.829l1.414-.292c.942-.198 1.877-.43 2.816-.643l2.805-.7.7-.183.35-.092.182-.047a1.222 1.222 0 0 1 .274-.027 1.155 1.155 0 0 1 .944.555 1.172 1.172 0 0 1 .171.56 1.281 1.281 0 0 1-.024.297l-.037.19a239.532 239.532 0 0 1-1.186 5.663l-.667 2.81-.183.699-.091.349-.046.174a2.317 2.317 0 0 1-.109.312 2.101 2.101 0 0 1-1.545 1.216c-.276.041-.303.033-.449.05-1.92.14-3.84.268-5.766.331-.962.041-1.927.048-2.89.074l-1.447.019-.724.007a2.1 2.1 0 0 1-.493-.033 1.399 1.399 0 0 1-.881-2.126l.856-1.173 1.679-2.354a147.178 147.178 0 0 0 3.202-4.807Zm0 0a147.364 147.364 0 0 0-2.965 4.957l-1.405 2.527-.683 1.269a.475.475 0 0 0 .223.634.352.352 0 0 0 .153.032 1.71 1.71 0 0 0 .225-.029l.715-.109 1.431-.214c.955-.13 1.908-.279 2.865-.393 1.91-.248 3.826-.433 5.743-.603.332-.024.273-.015.307-.026a.129.129 0 0 0 .061-.052l.363-1.241.866-2.756c.6-1.831 1.236-3.652 1.882-5.47l.055-.16a.363.363 0 0 0 .021-.06.246.246 0 0 0-.009-.13.31.31 0 0 0-.22-.198.437.437 0 0 0-.085-.007l-.173.019-.36.043-.717.09-2.865.386c-.951.15-1.906.28-2.855.444l-1.42.255a1.814 1.814 0 0 0-1.153.792Z"/><path class="cls-38" d="M344.02 22.069c-43.68 19.85-82.74 47.57-92.6 54.77a9.003 9.003 0 0 1-5.41 1.74l-32.81-1.2a2.916 2.916 0 0 0 .73-.36c43.52-28.54 101.65-53.22 115.86-59.09 1.76-.72 3.54-1.38 5.35-1.95a44.527 44.527 0 0 1 9.01 4.94.67.67 0 0 1-.13 1.15Z"/><path d="M69.852 190.825c-3.206.541-6.423.996-9.634 1.497l-4.826.68-1.207.169-.603.084c-.172.025-.568.071-.746.078l-2.439.125c-3.25.187-6.507.279-9.76.414l-4.882.189-1.22.047-.325.011a3.771 3.771 0 0 1-.53-.022 3.665 3.665 0 0 1-1.031-.265 3.758 3.758 0 0 1-2.302-3.284 3.338 3.338 0 0 1-.002-.385l.01-.315.021-.63c.013-.42.028-.839.06-1.25.054-.828.102-1.657.182-2.475.138-1.643.314-3.272.506-4.898.396-3.25.804-6.487 1.345-9.706q.788-4.829 1.659-9.637c.627-3.199 1.23-6.4 1.937-9.582a.305.305 0 0 1 .601.095l-1.96 19.409c-.276 3.234-.622 6.458-.85 9.683-.12 1.61-.223 3.222-.288 4.825-.043.804-.054 1.6-.072 2.397-.014.4-.01.795-.005 1.187l.014 1.11a.564.564 0 0 0 .364.49.458.458 0 0 0 .146.03.566.566 0 0 0 .08.002l.284-.015 1.216-.069 4.864-.276c3.244-.175 6.484-.393 9.73-.516l2.434-.107c.228-.014.236-.018.468-.045l.605-.08 1.21-.16 4.84-.638c3.235-.378 6.462-.802 9.7-1.14a1.5 1.5 0 0 1 .406 2.973ZM498.964 34.297c-.44 3.014-.986 6.004-1.481 9.005a511.988 511.988 0 0 1-1.64 8.972 798.025 798.025 0 0 1-3.602 17.872.98.98 0 0 1-.924.776h-.009l-3.42.116a.996.996 0 0 1-1.028-.962 1.053 1.053 0 0 1 .022-.248c1.416-6.477 2.855-12.948 4.408-19.395a664.908 664.908 0 0 1 2.38-9.66c.86-3.206 1.654-6.425 2.574-9.618-.477 3.288-1.08 6.549-1.617 9.824a665.898 665.898 0 0 1-1.813 9.782c-1.242 6.514-2.598 13.004-3.977 19.488l-1.007-1.21 3.42-.083-.932.775a798.413 798.413 0 0 1 4.083-17.769 511.83 511.83 0 0 1 2.203-8.849c.785-2.939 1.52-5.889 2.36-8.816ZM582.639 52.956a7.59 7.59 0 0 1-1.876 4.317 12.758 12.758 0 0 1-3.822 2.959 17.032 17.032 0 0 1-9.465 1.708 22.416 22.416 0 0 1-9.053-3.054 13.883 13.883 0 0 1-3.67-3.066 7.41 7.41 0 0 1-1.746-4.582 7.303 7.303 0 0 1 1.93-4.672 12.206 12.206 0 0 1 4.09-2.866 20.494 20.494 0 0 1 9.603-1.654 18.477 18.477 0 0 1 9.205 2.998 12.99 12.99 0 0 1 3.452 3.397 7.541 7.541 0 0 1 1.352 4.515Zm-.2-.012a6.047 6.047 0 0 0-1.585-4.171 11.078 11.078 0 0 0-3.673-2.587 24.653 24.653 0 0 0-8.675-2.01 21.33 21.33 0 0 0-8.738 1.254 11.951 11.951 0 0 0-3.678 2.254 6.219 6.219 0 0 0-1.99 3.617 6.055 6.055 0 0 0 1.191 4.105 10.433 10.433 0 0 0 3.454 2.917 14.824 14.824 0 0 0 4.312 1.5 24.604 24.604 0 0 0 4.516.455 28.302 28.302 0 0 0 8.874-1.2 11.278 11.278 0 0 0 3.947-2.162 6.017 6.017 0 0 0 2.045-3.972Z"/><path d="M71.942 144.658c-2.87.366-5.394.94-7.85 1.258a3.136 3.136 0 0 0-2.714 2.706l-.118.98-.232 1.991c-.646 5.31-1.35 10.61-2.384 15.865-.98 5.263-1.926 10.53-2.534 15.844l-.239 1.992c-.027.315-.086.705-.086.954a1.85 1.85 0 0 0 1.377 1.769 9.177 9.177 0 0 0 1.846.007q4.01-.173 8.021-.262l-.677 1.355-1.785-2.271-.442-.571-.222-.289a3.707 3.707 0 0 1-.27-.413 3.47 3.47 0 0 1-.429-1.91l.711-5.792a397.509 397.509 0 0 1 1.617-11.437c.59-3.805 1.214-7.606 1.892-11.399l1.041-5.688a3.563 3.563 0 0 1 .659-1.48c.317-.393.587-.687.897-1.037.6-.67 1.269-1.38 1.921-2.172Zm.175-.098c-.503.748-.99 1.578-1.544 2.448l-.829 1.278a2.811 2.811 0 0 0-.373 1.19l-.548 5.753a502.5 502.5 0 0 1-1.286 11.483 397.53 397.53 0 0 1-1.562 11.445l-.867 5.65a1.58 1.58 0 0 0 .166.876 1.853 1.853 0 0 0 .118.195l.21.29.425.583 1.68 2.35.022.03a.838.838 0 0 1-.7 1.325q-4.01-.085-8.02-.262l-1.003-.04a3.699 3.699 0 0 1-1.142-.157 2.8 2.8 0 0 1-1.708-1.607 2.712 2.712 0 0 1-.19-1.165c.036-.42.108-.687.161-1.035l.316-1.98c.87-5.278 1.402-10.603 1.9-15.933.443-5.338 1.217-10.629 2.05-15.912l.321-1.98.167-1.006a4.168 4.168 0 0 1 .374-1.136 4.423 4.423 0 0 1 3.735-2.49c2.87-.165 5.67-.075 8.127-.193ZM54.942 146.658c-2.786.357-5.245.919-7.62 1.239a3.201 3.201 0 0 0-2.6 1.684 3.039 3.039 0 0 0-.274.728 3.544 3.544 0 0 0-.07.384l-.06.482-.239 1.929c-.66 5.14-1.392 10.271-2.443 15.356-.474 2.55-1.011 5.09-1.435 7.647q-.65 3.834-1.138 7.69l-.24 1.929a2.013 2.013 0 0 0 .299 1.57 1.817 1.817 0 0 0 1.275.765 7.178 7.178 0 0 0 .887-.01l.972-.039q3.887-.176 7.773-.259l-.684 1.37-1.707-2.175-.423-.547c-.153-.204-.255-.312-.456-.607a3.463 3.463 0 0 1-.568-1.79 3.384 3.384 0 0 1 .017-.479l.047-.367.09-.685.18-1.37.362-2.74c.489-3.653 1.051-7.296 1.647-10.933.601-3.637 1.23-7.27 1.918-10.894l1.066-5.467a3.573 3.573 0 0 1 .724-1.365l.852-.962c.579-.641 1.221-1.325 1.848-2.084Zm.175-.098c-.479.715-.942 1.505-1.468 2.338l-.807 1.25a2.792 2.792 0 0 0-.434 1.12l-.565 5.467a464.098 464.098 0 0 1-1.309 10.981c-.48 3.654-.994 7.304-1.58 10.943l-.446 2.728-.223 1.364-.11.682-.051.317a1.465 1.465 0 0 0-.015.211 1.565 1.565 0 0 0 .229.82c.051.09.241.34.36.507l.407.56 1.609 2.247.022.032a.846.846 0 0 1-.707 1.337q-3.886-.089-7.773-.259l-.972-.04a8.133 8.133 0 0 1-1.053-.074 2.794 2.794 0 0 1-1.873-1.307 2.872 2.872 0 0 1-.297-2.168l.326-1.916q.643-3.834 1.13-7.691c.332-2.57.55-5.157.832-7.734.461-5.17 1.24-10.293 2.092-15.406l.329-1.916.082-.48a5.051 5.051 0 0 1 .131-.565 4.022 4.022 0 0 1 .472-1.06 4.47 4.47 0 0 1 3.798-2.12c2.787-.15 5.488-.056 7.864-.168ZM810.935 110.321c2.222 3.692 4.395 7.415 6.428 11.22 1.008 1.908 2.054 3.8 2.999 5.75a28.468 28.468 0 0 1 2.162 6.176l.016.071a.41.41 0 0 1-.05.3q-.919 1.51-1.966 2.955a.076.076 0 0 1-.134-.067q.523-1.706 1.179-3.347l-.034.371c-.775-1.953-1.746-3.857-2.57-5.827-.832-1.969-1.664-3.95-2.579-5.893q-2.728-5.837-5.582-11.637a.075.075 0 0 1 .131-.072Z"/><circle cx="183.529" cy="177.109" r="62.5" style="stroke-width:4.88281px;stroke-linecap:round;stroke-linejoin:round;stroke:#000;fill:none"/><circle cx="183.529" cy="177.109" r="51" style="stroke-width:3.98438px;stroke-linecap:round;stroke-linejoin:round;stroke:#000;fill:none"/><circle cx="698.529" cy="173.359" r="66.25" style="stroke-width:5.17578px;stroke-linecap:round;stroke-linejoin:round;stroke:#000;fill:none"/><circle cx="698.529" cy="173.359" r="54.06" style="stroke-width:4.22344px;stroke-linecap:round;stroke-linejoin:round;stroke:#000;fill:none"/><circle class="cls-26" cx="698.529" cy="172.859" r="65.75"/><circle class="cls-27" cx="698.529" cy="172.859" r="53.126"/><path d="M454.58 96.088c1.514 1.474 3.008 2.97 4.54 4.427l2.306 2.178a2.369 2.369 0 0 0 1.26.657c.443.064 1.034.042 1.543.067 4.228.102 8.45.32 12.667.603 4.218.297 8.43.696 12.649.944l3.165.195 1.583.077a4.318 4.318 0 0 0 1.52-.108 3.602 3.602 0 0 0 2.285-1.828 4.337 4.337 0 0 0 .433-1.446l.282-1.56c.174-1.02.397-2.13.53-3.074a1.235 1.235 0 0 0-.542-1.047 1.183 1.183 0 0 0-.558-.21c-.184-.014-.506-.007-.752-.011l-6.341-.062c-4.227-.053-8.454-.102-12.68-.224a381.12 381.12 0 0 1-12.675-.456l-6.335-.325c-1.056-.062-2.112-.08-3.169-.12l-.792-.026a1.325 1.325 0 0 0-.737.086.806.806 0 0 0-.182 1.263Zm-.071.07a.925.925 0 0 1 .185-1.452 1.454 1.454 0 0 1 .809-.122l.792.007c1.057.006 2.114.033 3.17.016l6.344-.055c4.23-.05 8.457-.008 12.683.083 4.227.058 8.452.188 12.678.315l6.338.208c.281.015.489.007.83.04a1.951 1.951 0 0 1 1.686 2.054c-.201 1.14-.45 2.094-.674 3.15l-.34 1.548a4.807 4.807 0 0 1-.534 1.556 4.161 4.161 0 0 1-2.575 1.963 4.671 4.671 0 0 1-1.626.097l-1.583-.1-3.166-.156c-4.222-.22-8.451-.291-12.676-.463a296.488 296.488 0 0 1-12.656-.804c-.543-.06-1.017-.054-1.617-.17a2.877 2.877 0 0 1-1.463-.868l-2.179-2.305c-1.456-1.533-2.952-3.026-4.426-4.541Z"/><path class="cls-32" d="m461.656 96.68 19.091.83a1.957 1.957 0 0 1 1.834 2.339l-.219 1.095a1.957 1.957 0 0 1-2.027 1.57l-14.734-.818a3.521 3.521 0 0 1-2.555-1.316l-2-2.5a.74.74 0 0 1 .61-1.2Z"/><path class="cls-32" d="m461.656 96.68 19.091.83a1.957 1.957 0 0 1 1.834 2.339l-.219 1.095a1.957 1.957 0 0 1-2.027 1.57l-14.734-.818a3.521 3.521 0 0 1-2.555-1.316l-2-2.5a.74.74 0 0 1 .61-1.2Z"/><path d="M461.656 96.68c4.08.186 8.165.235 12.251.283l6.128.086.773.022a2.345 2.345 0 0 1 .909.224 2.418 2.418 0 0 1 1.246 1.366 3.04 3.04 0 0 1 .003 1.763c-.055.265-.083.469-.16.784a2.415 2.415 0 0 1-.42.856 2.467 2.467 0 0 1-1.627.924 2.845 2.845 0 0 1-.473.013l-.382-.023-.764-.048-3.056-.22-6.106-.52-3.053-.262-1.533-.138a3.737 3.737 0 0 1-1.461-.542 3.96 3.96 0 0 1-1.105-1.076l-.939-1.21c-.31-.407-.647-.79-.935-1.215a.748.748 0 0 1 .704-1.067Zm0 0a.738.738 0 0 0-.687 1.059c.289.414.634.798.948 1.199l.975 1.181a3.845 3.845 0 0 0 1.112 1.01 3.317 3.317 0 0 0 1.413.44l1.525.043 3.064.077 6.126.16 3.061.12.765.038.383.019a1.865 1.865 0 0 0 .292-.012 1.49 1.49 0 0 0 .963-.562 1.42 1.42 0 0 0 .256-.505c.048-.18.102-.481.153-.716a2.091 2.091 0 0 0 .051-1.252 1.539 1.539 0 0 0-.739-.862 1.443 1.443 0 0 0-.562-.162l-.757-.048-6.112-.447c-4.075-.306-8.15-.612-12.23-.78Z"/><path class="cls-45" d="m823.76 53.579-10.77 4.62c-.2.08-.39.17-.58.26a13.294 13.294 0 0 0-1.26.73l-.28.19-18.25 12.04-3.31 2.18a2.368 2.368 0 0 1-1.7.35l-26.24-4.52a.637.637 0 0 1-.18-1.19l3.88-2.03 13.18-6.9 10.31-5.4a9.284 9.284 0 0 1 5.25-1.02l15.86 1.58a11.69 11.69 0 0 0 2.71-.04l.36-.05 10.85-1.44a.334.334 0 0 1 .17.64Z"/><path class="cls-45" d="m810.87 59.379-5.27 14.04a6.842 6.842 0 0 1-1.97-.05c-2-.35-5.99-1.05-11.01-1.95Z"/><path d="m810.87 59.379-5.27 14.04a6.842 6.842 0 0 1-1.97-.05c-2-.35-5.99-1.05-11.01-1.95Z" style="fill:#383842;mix-blend-mode:multiply"/><path d="m823.76 53.579-10.77 4.62c-.2.08-.39.17-.58.26l-34.16.85 10.31-5.4a9.284 9.284 0 0 1 5.25-1.02l15.86 1.58a11.69 11.69 0 0 0 2.71-.04l.36-.05 10.85-1.44a.334.334 0 0 1 .17.64Z" style="fill:#383842;mix-blend-mode:screen"/><path class="cls-38" d="m823.76 53.579-10.77 4.62a11.279 11.279 0 0 0-1.84.99l-.28.19-18.25 12.04-3.31 2.18a2.368 2.368 0 0 1-1.7.35l-26.24-4.52a.637.637 0 0 1-.18-1.19l3.88-2.03 23.49-12.3a9.284 9.284 0 0 1 5.25-1.02l15.86 1.58a11.69 11.69 0 0 0 2.71-.04l.36-.05 10.85-1.44a.334.334 0 0 1 .17.64Z"/><path class="cls-17" d="m810.87 59.379-5.27 14.04a6.842 6.842 0 0 1-1.97-.05c-2-.35-5.99-1.05-11.01-1.95Z"/><path class="cls-3" d="M309.39 73.049c-1.9 1.9-16.55.61-21.19.15a5.01 5.01 0 0 1-2.74-1.2 12.632 12.632 0 0 1-2.93-3.49 4.75 4.75 0 0 1-.24-4.49c2.26-4.52 13.55-11.29 13.55-11.29 4.51-2.26 11.29 2.25 13.55 4.51a4.678 4.678 0 0 1 .97 1.89c1.22 4 .9 12.05-.97 13.92Z"/><path class="cls-34" d="M310.36 59.129a203.02 203.02 0 0 0-27.83 9.38 4.75 4.75 0 0 1-.24-4.49c2.26-4.52 13.55-11.29 13.55-11.29 4.51-2.26 11.29 2.25 13.55 4.51a4.678 4.678 0 0 1 .97 1.89Z"/><path class="cls-3" d="m286.121 74.486 4.408 8.623h9l-7-7.528-6.408-1.095z"/><path class="cls-39" d="m286.121 73.486 4.408 8.623h9l-7-7.528-6.408-1.095zM295.836 52.724s-11.291 6.775-13.55 11.292c-1.597 3.194 1.323 6.388 3.17 7.985a4.926 4.926 0 0 0 2.747 1.194c4.634.46 19.286 1.752 21.184-.145 2.258-2.259 2.258-13.55 0-15.809s-9.034-6.775-13.55-4.517Z"/></g></g></svg>